<?xml version="1.0" encoding="utf-8"?>
<!-- Generator: Adobe Illustrator 23.0.3, SVG Export Plug-In . SVG Version: 6.00 Build 0)  -->
<svg version="1.1" id="Layer_1" xmlns="http://www.w3.org/2000/svg" xmlns:xlink="http://www.w3.org/1999/xlink" x="0px" y="0px"
	 viewBox="0 0 237.1 90.2" style="enable-background:new 0 0 237.1 90.2;" xml:space="preserve">
<style type="text/css">
	.st0{fill:#FE495D;}
	.st1{fill:#3F3D56;}
	.st2{fill:#08BFD5;}
	.st3{fill:#FF8F9E;}
	.st4{fill:#FFFFFF;}
	.st5{fill:#E6E6E6;}
	.st6{fill:#FF9900;}
	.st7{fill:#3B3D3E;}
	.st8{fill:#FFB6B6;}
	.st9{fill:#2F2E41;}
	.st10{opacity:0.1;enable-background:new    ;}
	.st11{fill:#6C63FF;}
	.st12{fill:#FFB7B7;}
	.st13{fill:#0592D7;}
	.st14{fill:#CCCCCC;}
</style>
<g id="Group_264" transform="translate(201.709 94.381)">
	<path id="Path_4730" class="st0" d="M-49.2-55.6v-16.9c0-1.7,1.4-3,3.1-3.1h11c1.7,0,3,1.4,3.1,3.1v16.9c0,1.7-1.4,3-3.1,3.1h-11
		C-47.8-52.5-49.2-53.9-49.2-55.6L-49.2-55.6z"/>
	<rect id="Rectangle_750" x="-43.6" y="-69.7" class="st1" width="5.8" height="1.5"/>
	<rect id="Rectangle_751" x="-42.1" y="-75.5" class="st1" width="2.9" height="4.7"/>
	<rect id="Rectangle_752" x="-42.1" y="-57.3" class="st1" width="2.9" height="4.7"/>
</g>
<g id="Group_265" transform="translate(174.127 97.832)">
	<path id="Path_4731" class="st2" d="M-29.3-58.4h-16.9c-1.7,0-3-1.4-3.1-3.1v-11c0-1.7,1.4-3,3.1-3.1h16.9c1.7,0,3,1.4,3.1,3.1v11
		C-26.2-59.7-27.6-58.4-29.3-58.4z"/>
	<rect id="Rectangle_753" x="-40.3" y="-73.1" class="st1" width="5.8" height="1.5"/>
	<rect id="Rectangle_754" x="-49.2" y="-68.4" class="st1" width="4.7" height="2.9"/>
	<rect id="Rectangle_755" x="-31" y="-68.4" class="st1" width="4.7" height="2.9"/>
</g>
<path id="Path_4732" class="st3" d="M8.9,70.9L6.1,54.4C5,47.7,9.5,41.3,16.2,40.1c0.5-0.1,1-0.1,1.4-0.2l40.2-2.1l9.6-15.8
	c1.3-2.1,3.5-3.4,6-3.4h28.9c2.3,0,4.2,1.7,4.5,3.9l0.7,12.6l71.9,0.2l9.1,29.8l-8.4-0.4l0.4,9l-11,0.4L165.9,64
	c-0.7-1.9-3.7-4.1-6.9-6c-7-4.2-16-2.8-21.4,3.4c-1.2,1.2-2,2.7-2.4,4.4l-1.7,9.6L53,74.2L42.4,59.4c-3.1-3.4-17.8-4.6-19.2,0
	l-8,11.8L8.9,70.9L8.9,70.9z"/>
<path id="Path_4733" class="st4" d="M95.9,28.5l2.4,11.2l-30.2,0.6l6.4-13.7c0.6-1.2,1.8-2,3.2-2l14.5,0.6
	C94,25.4,95.6,26.7,95.9,28.5L95.9,28.5z"/>
<path id="Path_4734" class="st4" d="M64.2,39.5l6-15.5l-1.6-1.6l-9.8,14.9l2,3L64.2,39.5z"/>
<circle id="Ellipse_153" class="st1" cx="151.9" cy="75.3" r="14.2"/>
<path id="Path_4735" class="st4" d="M142.1,75.3c0-5.4,4.4-9.8,9.8-9.8s9.8,4.4,9.8,9.8c0,5.4-4.4,9.8-9.8,9.8l0,0
	C146.5,85.1,142.1,80.7,142.1,75.3z M142.3,75.3c0,5.3,4.3,9.6,9.6,9.6c5.3,0,9.6-4.3,9.6-9.6c0-5.3-4.3-9.6-9.6-9.6
	C146.6,65.7,142.3,70,142.3,75.3L142.3,75.3z"/>
<path id="Path_4736" class="st5" d="M143.5,75.3c0,4.6,3.8,8.4,8.4,8.4c4.6,0,8.4-3.8,8.4-8.4c0-4.6-3.8-8.4-8.4-8.4
	C147.3,66.9,143.5,70.6,143.5,75.3C143.5,75.3,143.5,75.3,143.5,75.3z M157.4,73.3l-1.5,1l-0.6-0.9L157.4,73.3z M155.1,78.2l0.4-1
	l1.2,1.6L155.1,78.2z M151.3,81.5l1-1.8v1.8H151.3z M151.3,71.2l1-1.8v1.8H151.3z M146.6,78.9l1.2-1.6l0.4,1L146.6,78.9z M146,73.3
	l2.1,0.1l-0.6,0.9L146,73.3z"/>
<circle id="Ellipse_154" class="st1" cx="32.7" cy="75.4" r="14.2"/>
<path id="Path_4737" class="st4" d="M22.9,75.4c0-5.4,4.4-9.8,9.8-9.8s9.8,4.4,9.8,9.8c0,5.4-4.4,9.8-9.8,9.8c0,0,0,0,0,0
	C27.3,85.2,22.9,80.8,22.9,75.4z M23.1,75.4c0,5.3,4.3,9.6,9.6,9.6c5.3,0,9.6-4.3,9.6-9.6c0-5.3-4.3-9.6-9.6-9.6l0,0
	C27.4,65.8,23.1,70.1,23.1,75.4L23.1,75.4z"/>
<path id="Path_4738" class="st5" d="M24.3,75.4c0,4.6,3.8,8.4,8.4,8.4s8.4-3.8,8.4-8.4S37.3,67,32.7,67c0,0,0,0,0,0
	C28,67,24.3,70.7,24.3,75.4z M38.1,73.4l-1.5,1l-0.6-0.9L38.1,73.4z M35.9,78.3l0.4-1l1.2,1.6L35.9,78.3z M32,81.6l1-1.8v1.8H32z
	 M32,71.3l1-1.8v1.8H32z M27.4,79l1.2-1.6l0.4,1L27.4,79z M26.8,73.4l2.1,0.1l-0.6,0.9L26.8,73.4z"/>
<rect id="Rectangle_756" x="90.3" y="43.5" class="st1" width="8.2" height="1.7"/>
<g id="Group_266" transform="translate(237.291 145.067)">
	<path id="Path_4739" class="st6" d="M-32.6-66.3c-0.1-0.2-0.7-0.1-0.7-0.3s0.5-0.4,0.9-1c0.1-0.1,0.6-0.8,0.4-1.1
		c-0.4-0.5-2.8,0.8-3.4,0c-0.2-0.3-0.4-0.7-0.6-1c-0.2-0.2-0.3-0.3-0.4-0.3c-0.2,0-0.2,0.2-0.5,0.6c-0.4,0.6-0.5,0.5-0.8,1
		c-0.2,0.3-0.2,0.6-0.4,0.6c-0.2,0-0.3-0.4-0.5-0.4s-0.5,0.4-0.6,0.7c-0.1,0.5-0.2,1-0.1,1.6c0,0.8-0.2,1.6-0.6,2.2l-5.3,8.4
		c1.1-1.7,4.3-6.4,5.6-8.1c0.3-0.5,0.8-0.9,1.4-1.1c0.6-0.1,1.3,0.2,2.3,0.2c0.1,0,0.4,0,0.5-0.2c0.1-0.1-0.1-0.3,0-0.4
		c0.1-0.2,0.4-0.1,0.9-0.2c0.3-0.1,0.5-0.2,0.8-0.3C-33.4-65.4-32.5-66-32.6-66.3L-32.6-66.3L-32.6-66.3z"/>
	<path id="Path_4740" class="st6" d="M-46.4-64.3c-0.1,0-0.3,0.3-0.4,0.3s0-0.4-0.2-0.7c0-0.1-0.2-0.5-0.4-0.5c-0.4,0-0.4,1.6-1,1.7
		c-0.2,0-0.4,0-0.6,0c-0.1,0-0.2,0-0.3,0.1c0,0.1,0,0.2,0.1,0.4c0.2,0.4,0.1,0.4,0.2,0.7c0.1,0.2,0.2,0.3,0.2,0.3
		c0,0.1-0.3,0-0.4,0.1s0.1,0.4,0.2,0.5c0.2,0.2,0.5,0.4,0.8,0.5c0.4,0.2,0.7,0.5,0.9,0.9l2.6,5c-0.5-1-1.9-4-2.3-5.1
		c-0.2-0.3-0.2-0.7-0.1-1c0.1-0.3,0.5-0.6,0.8-1.1c0-0.1,0.1-0.2,0.1-0.3c-0.1-0.1-0.2,0-0.2-0.1c-0.1-0.1,0.1-0.2,0.2-0.5
		c0-0.2,0.1-0.3,0.1-0.5C-46.2-63.7-46.2-64.3-46.4-64.3L-46.4-64.3z"/>
	<path id="Path_4741" class="st6" d="M-43.8-63.1l0.1-0.8l0,0c0.2-0.2,0.4-0.4,0.4-0.7c0,0,0-0.1,0-0.1c0-0.2,0.1-0.4,0.2-0.5
		c0.1-0.1,0.3-0.4,0.5-0.3c0.1,0,0.1,0.1,0.1,0.1l0,0c0.1-0.1,0.1-0.1,0.2-0.2c0.1,0,0.1-0.1,0.2-0.1c0,0,0.1-0.1,0.1-0.1
		c0.1-0.1,0.2-0.1,0.3-0.1c0.1,0,0.2,0.1,0.2,0.3c0,0.1,0.1,0.2,0.1,0.4c0,0,0,0,0,0.1c0,0.1,0.4,0.1,0.6,0.1c0.3,0,0.6,0,0.7,0.3
		c0.1,0.2-0.1,0.4-0.3,0.6c-0.1,0.1-0.2,0.1-0.2,0.1c0.1,0,0.1,0.1,0.1,0.2l0,0c0,0.2-0.2,0.3-0.6,0.4c-0.1,0-0.3,0.1-0.4,0
		c-0.1,0-0.1,0-0.2,0c0,0,0,0.1-0.1,0.1c-0.1,0.1-0.3,0.1-0.4,0.1c-0.2-0.1-0.4-0.1-0.5-0.2c-0.1-0.1-0.2-0.1-0.3-0.1
		c-0.2,0-0.4,0.1-0.5,0.2L-43.8-63.1L-43.8-63.1z"/>
	<path id="Path_4742" class="st6" d="M-42.4-67.4l-0.7,0.1l-0.1,0c-0.2-0.2-0.5-0.2-0.8-0.2c0,0-0.1,0-0.1,0c-0.2,0-0.4,0-0.6-0.1
		c-0.1-0.1-0.4-0.2-0.4-0.4c0-0.1,0-0.1,0.1-0.2l0,0c-0.1,0-0.2-0.1-0.2-0.2c0-0.1-0.1-0.1-0.2-0.2c0,0-0.1-0.1-0.1-0.1
		c-0.1-0.1-0.2-0.2-0.2-0.3c0-0.1,0.1-0.2,0.2-0.3c0.1-0.1,0.2-0.1,0.3-0.2c0,0,0,0,0.1,0c0.1-0.1,0-0.5,0-0.6
		c-0.1-0.3-0.1-0.6,0.1-0.8c0.2-0.1,0.4,0,0.6,0.2c0.1,0.1,0.1,0.1,0.2,0.2c0-0.1,0.1-0.1,0.2-0.1l0,0c0.2-0.1,0.4,0.1,0.6,0.4
		c0.1,0.1,0.1,0.2,0.1,0.4c0,0.1,0,0.1,0,0.2c0,0,0.1,0,0.1,0c0.1,0.1,0.2,0.2,0.2,0.4c0,0.2,0,0.4-0.1,0.6c0,0.1,0,0.2,0,0.3
		c0,0.2,0.2,0.3,0.3,0.4L-42.4-67.4L-42.4-67.4z"/>
	<path id="Path_4743" class="st6" d="M-42.3-69.7l0.1-0.8l0,0c0.2-0.2,0.4-0.4,0.4-0.7c0,0,0-0.1,0-0.1c0-0.2,0.1-0.4,0.2-0.5
		c0.1-0.1,0.3-0.4,0.5-0.3c0.1,0,0.1,0.1,0.1,0.1l0,0c0.1-0.1,0.1-0.1,0.2-0.2c0.1,0,0.1-0.1,0.2-0.1c0,0,0.1-0.1,0.1-0.1
		c0.1-0.1,0.2-0.1,0.3-0.1c0.1,0,0.2,0.1,0.2,0.3c0,0.1,0.1,0.2,0.1,0.4c0,0,0,0,0,0.1c0,0.1,0.4,0.1,0.6,0.1c0.3,0,0.6,0,0.7,0.3
		c0.1,0.2-0.1,0.4-0.3,0.6c-0.1,0.1-0.2,0.1-0.2,0.1c0.1,0,0.1,0.1,0.1,0.2l0,0c0,0.2-0.2,0.3-0.6,0.4c-0.1,0-0.3,0.1-0.4,0
		c-0.1,0-0.1,0-0.2,0c0,0,0,0.1-0.1,0.1c-0.1,0.1-0.3,0.1-0.4,0.1c-0.2-0.1-0.4-0.1-0.5-0.2c-0.1-0.1-0.2-0.1-0.3-0.1
		c-0.2,0-0.4,0.1-0.5,0.2L-42.3-69.7L-42.3-69.7z"/>
	<path id="Path_4744" class="st6" d="M-44.7-55.2l-0.1-0.1v-0.2v0.2l-0.2,0c0,0,0-0.1,0-0.1c0-1,0-2,0.1-3c0.1-1.1,0.3-2.3,0.5-3.4
		c0.2-1.1,0.5-2,0.7-2.7c0.1-0.5,0.3-1,0.4-1.5c0.4-1.2,0.7-2.5,1-3.8c0.1-0.6,0.1-1.1-0.1-1.7c-0.1-0.4-0.3-0.9-0.6-1.2l0.3-0.2
		c0.3,0.4,0.6,0.9,0.7,1.3c0.2,0.6,0.2,1.2,0.1,1.8c-0.2,1.3-0.6,2.6-1,3.9c-0.1,0.5-0.3,1-0.4,1.5c-0.2,0.7-0.4,1.5-0.7,2.6
		c-0.2,1.1-0.4,2.2-0.5,3.4c-0.1,1-0.1,2-0.1,3C-44.7-55.3-44.7-55.3-44.7-55.2L-44.7-55.2L-44.7-55.2z"/>
	<path id="Path_4745" class="st6" d="M-43.8-72.4L-43.8-72.4c-0.4-0.1-0.7-0.4-0.8-0.8c-0.1-0.3-0.1-0.5-0.1-0.8c0-0.3,0-0.5,0-0.8
		c0-0.3,0.1-0.4,0.1-0.5c0.1-0.1,0.2-0.2,0.3-0.2c0,0,0-0.1,0-0.1c0.1-0.1,0.3-0.1,0.3-0.1c0.1,0,0.1,0,0.2,0c0.1,0,0.2,0,0.2,0
		c0.1,0,0.2-0.1,0.3-0.1c0.2,0,0.4,0.1,0.6,0.2c0.3,0.2,0.5,0.6,0.6,1c0.1,0.2,0.1,0.5,0.1,0.7c0,0.2,0,0.3-0.1,0.5
		c-0.1,0.2-0.2,0.2-0.5,0.4c-0.2,0.1-0.4,0.2-0.6,0.3C-43.3-72.4-43.6-72.3-43.8-72.4L-43.8-72.4z"/>
</g>
<path id="Path_4746" class="st7" d="M0,89.7c0,0.3,0.2,0.5,0.5,0.5c0,0,0,0,0,0h236.1c0.3,0,0.5-0.2,0.5-0.5c0-0.3-0.2-0.5-0.5-0.5
	c0,0,0,0,0,0H0.5C0.2,89.2,0,89.4,0,89.7C0,89.7,0,89.7,0,89.7z"/>
<g id="Group_271" transform="translate(127.819 75.513)">
	<g id="Group_267" transform="translate(19.181 76.343)">
		<path id="Path_4747" class="st8" d="M-48.5-64h3l1.4-11.5h-4.4V-64z"/>
		<path id="Path_4748" class="st9" d="M-38.3-64L-38.3-64c0.1,0.3,0.1,0.6,0.1,0.8l0,0c0,0.6-0.5,1-1,1h0h-9.3
			c-0.4,0-0.7-0.3-0.7-0.7v-0.4c-0.3-0.9-0.1-1.8,0.5-2.6c0,0,1.2,1.1,2.9-0.6l0.5-0.9l3.7,2.7l2.1,0.3
			C-38.9-64.4-38.5-64.4-38.3-64L-38.3-64z"/>
	</g>
	<g id="Group_268" transform="translate(5.743 76.343)">
		<path id="Path_4749" class="st8" d="M-48.5-64h3l1.4-11.5h-4.4V-64z"/>
		<path id="Path_4750" class="st9" d="M-38.3-64L-38.3-64c0.1,0.3,0.1,0.6,0.1,0.8l0,0c0,0.6-0.5,1-1,1h0h-9.3
			c-0.4,0-0.7-0.3-0.7-0.7c0,0,0,0,0,0v-0.4c-0.3-0.9-0.1-1.8,0.5-2.6c0,0,1.2,1.1,2.9-0.6l0.5-0.9l3.7,2.7l2.1,0.3
			C-38.9-64.4-38.5-64.4-38.3-64L-38.3-64L-38.3-64z"/>
	</g>
	<path id="Path_4751" class="st8" d="M-29.8-65.8l0.6,5.3l-6.6-0.6l1.1-4.9L-29.8-65.8z"/>
	<path id="Path_4752" class="st10" d="M-29.8-65.8l0.6,5.3l-6.6-0.6l1.1-4.9L-29.8-65.8z"/>
	<ellipse id="Ellipse_155" class="st8" cx="-32.2" cy="-69.5" rx="4.4" ry="4.4"/>
	<path id="Path_4753" class="st0" d="M-29.3-62.6l7.3,4.2L-24.4-47l1.6,15.4l-1.1,37.7l-7-0.8l-0.9-32.1l-5.5,33.2h-6.8l1.1-35.8
		l3.4-15.2L-41.7-61l6.3-2L-29.3-62.6z"/>
	<path id="Path_4754" class="st9" d="M-29-68.2c0,0,0.4-1.3,1.2-1.2c0.4,0.1,0.8-0.1,0.9-0.5c0-0.2,0-0.3,0-0.5
		c-0.2-0.7-0.4-1.5-0.6-2.3c0,0,0.2-1.3-0.9-1.5s-1.5-0.4-1.7-0.8c-0.2-0.4-3-0.8-4-0.2s-1.7,1.7-2.4,2c-0.7,0.2-1.1,0.9-0.9,1.7
		c0,0.1,0,0.1,0.1,0.2c0.4,0.9,0.9,2.8,0.9,2.8s1-0.3,1.2,0.2s-0.6-0.2,0.4-1.7c0.9-1.5,0.9-3,2.5-2.5c1.5,0.6,3.2,0.4,3,1.5
		C-29.5-70.1-29.3-69.1-29-68.2L-29-68.2z"/>
	<path id="uuid-2f48dadd-bd50-474e-b6bc-efb589732da4-671" class="st8" d="M-25.8-35c-0.9,1-1.2,2.2-0.5,2.8s1.8,0.3,2.8-0.7
		c0.4-0.4,0.6-0.8,0.8-1.4l3.8-4.1l-2-1.7l-3.5,4.3C-25-35.7-25.4-35.4-25.8-35L-25.8-35z"/>
	<path id="Path_4755" class="st2" d="M-22.1-58.6l6.4,10.9l1,5l-6.2,7.8l-2.6-3.3l3.1-4.5l-5-8.8L-22.1-58.6z"/>
	<g id="Group_269" transform="translate(9.051 23.128)">
		<path id="Path_4756" class="st11" d="M-49.2-59.1V-72c0-2,1.6-3.6,3.6-3.6H-26c2,0,3.6,1.6,3.6,3.6v12.9c0,2-1.6,3.6-3.6,3.6
			h-19.7C-47.6-55.5-49.2-57.1-49.2-59.1z"/>
		<rect id="Rectangle_757" x="-39.6" y="-69.1" class="st1" width="6.8" height="1.7"/>
		<rect id="Rectangle_758" x="-38.9" y="-59" class="st1" width="5.5" height="3.4"/>
		<rect id="Rectangle_759" x="-38.7" y="-75.4" class="st1" width="5.5" height="3.4"/>
	</g>
	<g id="Group_270" transform="translate(0 14.431)">
		<path id="uuid-f6ce86b9-37cf-4878-a476-c93c5a2c7b27-672" class="st8" d="M-38.2-51.8c0.9,1,1.2,2.2,0.5,2.8s-1.9,0.3-2.8-0.7
			c-0.4-0.4-0.6-0.8-0.8-1.4l-3.8-4.1l2-1.7l3.5,4.3C-39-52.4-38.5-52.1-38.2-51.8L-38.2-51.8z"/>
		<path id="Path_4757" class="st2" d="M-41.8-75.5l-6.4,10.9l-1,5l6.2,7.8l2.6-3.3l-3.1-4.5l5-8.8L-41.8-75.5z"/>
	</g>
</g>
<ellipse id="Ellipse_156" class="st0" cx="6.9" cy="61.2" rx="5.8" ry="5.1"/>
<path id="Path_4691" class="st6" d="M227,54.6c0.8-4.2-0.4-8.9-3.8-11.4c0.2,4.6-1.2,9.1-4.1,12.7c-1.1,1.4-2.5,2.8-2.4,4.6
	c0.1,1.1,0.6,2.2,1.4,2.9c0.8,0.7,1.7,1.4,2.7,1.9l0.1,0.2C223.7,62.4,226.2,58.8,227,54.6z"/>
<path id="Path_4692" class="st4" d="M223.1,43.3c1.4,3.2,1.8,6.8,1.1,10.2c-0.1,0.7-0.4,1.5-0.8,2.1c-0.4,0.6-0.9,1.2-1.6,1.5
	c-0.6,0.3-1.2,0.7-1.7,1.1c-0.5,0.5-0.8,1.2-0.7,1.9c0.1,0.9,0.3,1.7,0.7,2.5c0.5,0.9,0.7,1.8,0.8,2.8c0,0.1,0.2,0.1,0.2,0
	c0-1.7-1.2-3.1-1.5-4.8c-0.2-0.8,0-1.6,0.5-2.2c0.5-0.5,1.1-0.9,1.7-1.2c0.6-0.3,1.2-0.8,1.6-1.4c0.4-0.6,0.7-1.3,0.8-2.1
	c0.4-1.6,0.5-3.3,0.4-5c-0.2-1.9-0.6-3.8-1.4-5.6C223.2,43.1,223,43.2,223.1,43.3z"/>
<path id="Path_4693" class="st4" d="M224.5,52.4c1.2,0.1,2.3-0.7,2.6-1.9c0-0.1-0.2-0.2-0.2,0c-0.3,1.1-1.3,1.9-2.4,1.8
	C224.3,52.2,224.3,52.4,224.5,52.4z"/>
<path id="Path_4694" class="st4" d="M222.2,57c-0.8-0.9-1.2-2.1-1.2-3.3c0-0.1-0.2-0.1-0.2,0c0,1.3,0.4,2.5,1.3,3.4
	C222.1,57.2,222.2,57.1,222.2,57L222.2,57z"/>
<path id="Path_4695" class="st4" d="M224.3,47c-0.5,0.1-0.9-0.1-1.3-0.5c-0.1-0.1-0.2,0-0.1,0.1c0.3,0.4,0.9,0.6,1.4,0.5
	C224.3,47.2,224.4,47.2,224.3,47C224.4,47.1,224.3,47,224.3,47z"/>
<path id="Path_4696" class="st6" d="M209.2,46.7c0,0.1,0.1,0.1,0.1,0.2c0.6,0.8,1.2,1.6,1.7,2.5c0,0.1,0.1,0.1,0.1,0.2
	c1.2,2.1,2,4.4,2.3,6.9c0.1,1,0.2,1.9,0.2,2.9c-0.1,1.3,0,2.7,0.3,4c0,0.1,0.1,0.3,0.1,0.4l6.6,2.1l0.1,0l0.3,0.1c0,0,0-0.1,0-0.2
	c0,0,0-0.1,0-0.1s0,0,0-0.1s0,0,0,0s0,0,0,0c0-0.3,0-0.6,0.1-0.9l0,0c0.1-2.2,0-4.4-0.4-6.6c0-0.1,0-0.1,0-0.2
	c-0.2-1-0.5-1.9-0.8-2.9c-0.2-0.5-0.4-1-0.6-1.5c-0.6-1.3-1.4-2.4-2.4-3.4c-1.9-2-4.5-3.3-7.3-3.4L209.2,46.7z"/>
<path id="Path_4697" class="st4" d="M209.2,46.7c3.1,1.7,5.5,4.3,7,7.5c0.3,0.7,0.6,1.4,0.7,2.1c0.1,0.7,0,1.5-0.3,2.1
	c-0.3,0.6-0.6,1.3-0.7,1.9c-0.1,0.7,0.1,1.4,0.6,2c0.6,0.7,1.3,1.2,2.1,1.6c0.9,0.4,1.7,1,2.3,1.7c0.1,0.1,0.2,0,0.1-0.1
	c-1-1.4-2.8-1.8-4-2.9c-0.6-0.5-0.9-1.3-0.9-2.1c0.1-0.7,0.4-1.4,0.7-2c0.3-0.7,0.4-1.4,0.4-2.1c-0.1-0.7-0.3-1.5-0.6-2.2
	c-0.7-1.5-1.6-3-2.7-4.2c-1.3-1.4-2.8-2.7-4.5-3.6C209.2,46.5,209.1,46.7,209.2,46.7L209.2,46.7z"/>
<path id="Path_4698" class="st4" d="M215.8,53.2c1-0.7,1.4-2,0.9-3.1c0-0.1-0.2,0-0.2,0.1c0.5,1,0.1,2.3-0.9,2.9
	C215.6,53.1,215.7,53.3,215.8,53.2z"/>
<path id="Path_4699" class="st4" d="M216.7,58.2c-1.2-0.2-2.2-0.9-2.9-1.9c-0.1-0.1-0.2,0-0.1,0.1c0.7,1,1.8,1.7,3.1,2
	C216.8,58.4,216.8,58.2,216.7,58.2z"/>
<path id="Path_4700" class="st4" d="M212.4,49c-0.3,0.3-0.8,0.5-1.3,0.4c-0.1,0-0.1,0.2,0,0.2c0.5,0.1,1-0.1,1.4-0.4
	c0,0,0-0.1,0-0.1C212.5,49,212.4,49,212.4,49z"/>
<path id="Path_4701" class="st8" d="M198.9,24.2c0,0.1,0,0.2,0,0.3l-7.7,4.4l-1.9-1.1l-2,2.6l3.1,2.2c0.5,0.4,1.2,0.4,1.7,0l7.9-6.3
	c1,0.4,2.1-0.1,2.4-1.1c0.4-1-0.1-2.1-1.1-2.4c-1-0.4-2.1,0.1-2.4,1.1C198.9,24,198.9,24.1,198.9,24.2L198.9,24.2z"/>
<path id="Path_4702" class="st1" d="M191.4,28.4c0-0.2-0.2-0.4-0.4-0.5l-3.6-1.9c-1-0.7-2.4-0.6-3.1,0.4c-0.7,1-0.6,2.4,0.4,3.1
	l2.8,2.9c0.3,0.3,0.8,0.3,1.1,0c0,0,0.1-0.1,0.1-0.1l2.5-3.3C191.4,28.9,191.4,28.6,191.4,28.4z"/>
<path id="Path_4703" class="st9" d="M185.1,17.3c-0.5-1.7-1.7-3-3.3-3.7c-1.9-0.4-3.8,0.2-5.2,1.5c-2.2,2.2-2.8,9.8-1.2,12.2
	c0.3,0,1.3,0,1.7,0l0.4-1.4v1.4c2.4-0.1,4.9,0,7.4,0C185.1,25.6,185.6,19,185.1,17.3z"/>
<path id="Path_4704" class="st8" d="M185.7,85.1h2.2l1-8.4h-3.2L185.7,85.1z"/>
<path id="Path_4705" class="st8" d="M166.8,83.8l2.1,0.5l3.1-7.9l-3.1-0.8L166.8,83.8z"/>
<path id="Path_4706" class="st8" d="M178.7,33.9l-0.5,1.3l0.1,1.3l9.7,3.3l-0.5-5.6l-1.1-1.3L178.7,33.9z"/>
<ellipse id="Ellipse_151" class="st12" cx="181.7" cy="19" rx="3.5" ry="3.5"/>
<path id="Path_4707" class="st9" d="M184.1,14.5c-2-1.2-4.7-0.6-6,1.4c-0.4,0.7-0.6,1.5-0.6,2.3c2,0.6,4,0.6,6,0.1l0.5-1.2l0.3,1.2
	c0.5,0.5,1.3,0.5,1.9,0C186.2,16.9,185.5,15.4,184.1,14.5z"/>
<path id="Path_4708" class="st9" d="M184.7,89.3h1.5l0.3-1.5l0.7,1.5h4.1c0.5,0,0.9-0.4,0.9-0.9c0-0.3-0.1-0.6-0.4-0.8l-3.3-2.3
	v-1.5l-3.4,0.2L184.7,89.3z"/>
<path id="Path_4709" class="st9" d="M164.6,87.5l1.5,0.4l0.6-1.3l0.3,1.6l4,1c0.5,0.1,1-0.2,1.1-0.7c0.1-0.3,0-0.6-0.2-0.8l-2.6-3
	l0.4-1.4l-3.4-0.7L164.6,87.5z"/>
<path id="Path_4710" class="st0" d="M166.9,78.5l6.4-13.1l2-16c-1.4-2.6,1.2-7.8,1.2-7.8v-2.2l9.9,1.9l0,0c2,5.5,3,11.4,2.9,17.3
	L189,79.9h0.1c0.4,0,0.8,0.4,0.8,0.8c0,0.4-0.3,0.7-0.8,0.8h-3.9c-0.4,0-0.8-0.3-0.8-0.8c0-0.4,0.3-0.8,0.8-0.8c0,0,0,0,0.1,0h0.1
	l-2.8-27l-3.3,13.3l-7.9,12.3c0.4,0,0.8,0.4,0.7,0.9c0,0.4-0.4,0.7-0.8,0.7h-3.9c-0.4,0-0.8-0.4-0.8-0.8
	C166.4,78.9,166.6,78.6,166.9,78.5L166.9,78.5z"/>
<path id="Path_4711" class="st0" d="M175.6,43.4L175.6,43.4c0.1-0.3,0.3-0.5,0.6-0.5c0.1-1.5,1-11.1,1-11.4v0l0.3-5.4
	c0-0.4,0.3-0.7,0.7-0.8l1.3-0.1c0,0,0.1,0,0.1-0.1c0-0.6,0.5-1.1,1.1-1.1l0,0h3.9c0.5,0,1,0.4,1,0.9c0,0,0,0.1,0.1,0.1l0,0
	c0.9,0,1.7,0.6,1.9,1.5c0.5,3.1,1.6,10.2,1.1,14.1c-0.1,1.5-0.1,3.1,0,4.6c0,0.2-0.1,0.4-0.2,0.6c0.3,0.1,0.5,0.4,0.4,0.8l0,0
	c-0.1,0.3-0.4,0.5-0.8,0.5c0,0,0,0,0,0l-12-3C175.7,44,175.5,43.7,175.6,43.4C175.6,43.4,175.6,43.4,175.6,43.4z"/>
<g id="Group_561" transform="translate(244.225 135.989)">
	<path id="Path_4712" class="st13" d="M-49.1-70.5c0-0.7,0.5-1.3,1.3-1.5l21.4-3.5c0.2,0,0.4,0,0.6,0l5,1.3l2.9,0.7l5.3,1.4
		c0.7,0.2,1.1,0.8,1.1,1.4v22.4c0,0.7-0.5,1.3-1.2,1.5L-34.5-47c-0.1,0-0.2,0-0.3,0c-0.2,0-0.3,0-0.4-0.1l-12.9,0.3
		c-0.6-0.2-1.1-0.8-1-1.4L-49.1-70.5z"/>
	<path id="Path_4713" class="st14" d="M-49.1-70.5c0-0.7,0.5-1.3,1.3-1.5l21.4-3.5c0.2,0,0.4,0,0.6,0l5,1.3l2.9,0.7l5.3,1.4
		c0.7,0.2,1.1,0.8,1.1,1.4v22.4c0,0.7-0.5,1.3-1.2,1.5L-34.5-47c-0.1,0-0.2,0-0.3,0c-0.2,0-0.3,0-0.4-0.1l-12.9,0.3
		c-0.6-0.2-1.1-0.8-1-1.4L-49.1-70.5z M-48.1-47.1l12.9,0.3c0.2,0.1,0.4,0.1,0.6,0l21.8-0.4c0.5-0.1,0.9-0.6,0.9-1.1v-22.4
		c0-0.5-0.3-0.9-0.7-1.1c0,0-0.1,0-0.1,0l-5.6-1.5l-3.3-0.9l-4.3-1.1c-0.1,0-0.2,0-0.3,0c-0.1,0-0.1,0-0.2,0l-21.4,3.5
		c-0.5,0.1-0.9,0.5-0.9,1.1l-0.1,22.4C-48.8-47.7-48.5-47.2-48.1-47.1L-48.1-47.1z"/>
	<path id="Path_4714" class="st14" d="M-48.6-71C-48.5-71-48.5-71-48.6-71l6.3,1.7l2,0.5l5.6,1.5c0,0,0,0,0,0h0l22.4-4.1l0.1,0
		c0.1,0,0.2-0.1,0.2-0.2c0-0.1-0.1-0.2-0.2-0.2l-0.5,0.1l-22,4l-4.8-1.3l-2.7-0.7l-6.2-1.7l-0.1,0c-0.1,0-0.2,0-0.2,0.1c0,0,0,0,0,0
		C-48.7-71.2-48.6-71.1-48.6-71z"/>
	<path id="Path_4715" class="st14" d="M-34.8-46.9c0.1,0,0.2-0.1,0.2,0.4l0.2-20.3c0-0.7-0.1-0.8-0.2-0.8l0,0
		c-0.1,0-0.2,0.1-0.2,0.8L-35-46.5C-35-47-35-46.9-34.8-46.9L-34.8-46.9z"/>
	<path id="Path_4716" class="st14" d="M-42.3-46.7l2,0l0.8-22.3l21-4.2c0,0,0,0,0.1,0c0.2,0,0.3-0.1,0.4-0.3l-2.9-0.7l-0.8,0.2
		l-20,4c-0.2,0-0.4,0.2-0.5,0.4C-42.2-69.6-42.3-46.8-42.3-46.7z"/>
</g>
<path id="Path_4717" class="st4" d="M185.8,25.2c0-0.5,0.4-1,0.9-1.1l16.1-2.6c0.2,0,0.3,0,0.5,0l3.8,1l2.2,0.6l4,1
	c0.5,0.1,0.8,0.6,0.8,1.1v13.2c0,0.5-0.4,1-0.9,1.1l-16.4,3.5c-0.1,0-0.2,0-0.2,0c-0.1,0-0.2,0-0.3-0.1l-9.7-3.1
	c-0.5-0.1-0.8-0.6-0.8-1.1L185.8,25.2z"/>
<path id="Path_4718" class="st11" d="M203.1,22.4C203.1,22.4,203.1,22.4,203.1,22.4l10,2.6c0.1,0,0.1,0.1,0.1,0.1v13.2
	c0,0.1,0,0.1-0.1,0.1l-16.4,3.5c0,0,0,0-0.1,0l-9.7-3.1c-0.1,0-0.1-0.1-0.1-0.1l0.1-13.5c0-0.1,0.1-0.1,0.1-0.1L203.1,22.4
	L203.1,22.4z"/>
<path id="Path_4719" class="st1" d="M185.8,25.2c0-0.5,0.4-1,0.9-1.1l16.1-2.6c0.2,0,0.3,0,0.5,0l3.8,1l2.2,0.6l4,1
	c0.5,0.1,0.8,0.6,0.8,1.1v13.2c0,0.5-0.4,1-0.9,1.1l-16.4,3.5c-0.1,0-0.2,0-0.2,0c-0.1,0-0.2,0-0.3-0.1l-9.7-3.1
	c-0.5-0.1-0.8-0.6-0.8-1.1L185.8,25.2z M186.6,39.5l9.7,3.1c0.1,0,0.3,0.1,0.4,0l16.4-3.5c0.4-0.1,0.7-0.4,0.7-0.8V25.1
	c0-0.4-0.2-0.7-0.6-0.8c0,0-0.1,0-0.1,0l-4.2-1.1l-2.5-0.6l-3.2-0.8c-0.1,0-0.1,0-0.2,0c0,0-0.1,0-0.1,0l-16.1,2.6
	c-0.4,0.1-0.7,0.4-0.7,0.8L186,38.7C186,39.1,186.3,39.4,186.6,39.5L186.6,39.5z"/>
<path id="Path_4720" class="st1" d="M186.2,24.8C186.2,24.8,186.2,24.8,186.2,24.8l4.8,1.3l1.5,0.4l4.2,1.1c0,0,0,0,0,0h0l16.9-3.1
	l0.1,0c0.1,0,0.1-0.1,0.1-0.2s-0.1-0.1-0.2-0.1c0,0,0,0,0,0l-0.3,0.1l-16.6,3l-3.6-1l-2-0.5l-4.7-1.3l-0.1,0c-0.1,0-0.1,0-0.2,0.1
	c0,0,0,0,0,0C186.1,24.7,186.2,24.8,186.2,24.8z"/>
<path id="Path_4721" class="st1" d="M196.6,42.9c0.1,0,0.1-0.1,0.1-0.1l0.1-15.3c0-0.1-0.1-0.1-0.1-0.1l0,0c-0.1,0-0.1,0.1-0.1,0.1
	l-0.1,15.3C196.4,42.8,196.5,42.9,196.6,42.9z"/>
<path id="Path_4722" class="st1" d="M191,41.1l1.5,0.4l0.6-15.1l15.9-3.2c0,0,0,0,0,0c0.1,0,0.2-0.1,0.3-0.2l-2.2-0.6l-0.6,0.1
	l-15,3c-0.2,0-0.3,0.1-0.4,0.3C191,25.9,191,41,191,41.1z"/>
<path id="Path_4723" class="st8" d="M192,32.4c-0.1,0.1-0.1,0.1-0.2,0.2l-8.8-1l-0.9-2l-3.2,0.9l1.2,3.7c0.2,0.6,0.8,1,1.4,1
	l10.1-0.3c0.6,0.9,1.7,1.1,2.6,0.6c0.9-0.6,1.1-1.7,0.6-2.6s-1.7-1.1-2.6-0.6C192.1,32.3,192,32.4,192,32.4L192,32.4z"/>
<path id="Path_4724" class="st2" d="M183.2,31.2c0.1-0.2,0.1-0.5,0-0.7l-1.7-3.7c-0.4-1.2-1.7-1.8-2.8-1.4c-1.1,0.4-1.7,1.5-1.5,2.6
	l0.6,4c0.1,0.4,0.5,0.7,0.9,0.7c0,0,0.1,0,0.1,0l3.9-1.1C182.9,31.5,183.1,31.4,183.2,31.2z"/>
<ellipse id="Ellipse_152" class="st0" cx="230.4" cy="64.1" rx="5.6" ry="5.6"/>
<path id="Path_4726" class="st4" d="M229.7,67c-0.2,0-0.4-0.1-0.5-0.3l-1.5-2c-0.2-0.3-0.2-0.7,0.1-0.9c0.3-0.2,0.7-0.2,0.9,0.1
	c0,0,0,0,0.1,0.1l1,1.3l2.6-3.9c0.2-0.3,0.6-0.4,0.9-0.2c0.3,0.2,0.4,0.6,0.2,0.9l0,0l-3.1,4.6C230.1,66.9,229.9,67,229.7,67
	L229.7,67z"/>
<path id="Path_4727" class="st4" d="M207.4,34.4C207.5,34.4,207.5,34.4,207.4,34.4l4.9-1.1c0.1,0,0.2-0.2,0.2-0.3
	c0-0.1-0.1-0.2-0.3-0.2l-4.9,1.1c-0.1,0-0.2,0.2-0.2,0.3C207.2,34.3,207.3,34.4,207.4,34.4L207.4,34.4z"/>
<path id="Path_4728" class="st5" d="M226.2,78.3C226.2,78.3,226.3,78.3,226.2,78.3l5.1-0.1c0.1,0,0.2-0.1,0.2-0.2s-0.1-0.2-0.2-0.2
	l0,0l-5,0.1c-0.1,0-0.2,0.1-0.2,0.2C226,78.2,226.1,78.3,226.2,78.3L226.2,78.3z"/>
<path id="Path_4729" class="st5" d="M224.5,81C224.5,81,224.5,81,224.5,81l5.1-0.1c0.1,0,0.2-0.1,0.2-0.2s-0.1-0.2-0.2-0.2l-5,0.1
	c-0.1,0-0.2,0.1-0.2,0.2C224.3,80.9,224.4,81,224.5,81z"/>
</svg>
