<?xml version="1.0" encoding="utf-8"?>
<!-- Generator: Adobe Illustrator 23.0.3, SVG Export Plug-In . SVG Version: 6.00 Build 0)  -->
<svg version="1.1" id="Layer_1" xmlns="http://www.w3.org/2000/svg" xmlns:xlink="http://www.w3.org/1999/xlink" x="0px" y="0px"
	 viewBox="0 0 244.6 90" style="enable-background:new 0 0 244.6 90;" xml:space="preserve">
<style type="text/css">
	.st0{fill:#FFFFFF;}
	.st1{fill:#0592D7;}
	.st2{fill:#999999;}
	.st3{fill:#FF6584;}
	.st4{fill:#FE495D;}
	.st5{fill:#FF8F9E;}
	.st6{fill:#08BFD5;}
	.st7{fill:#FE9090;}
	.st8{fill:#3F3D56;}
	.st9{fill:#FFCCD3;}
	.st10{fill:#9BEEF8;}
	.st11{fill:#E6E6E6;}
	.st12{fill-rule:evenodd;clip-rule:evenodd;fill:#181914;}
	.st13{fill-rule:evenodd;clip-rule:evenodd;fill:#30302E;}
	.st14{fill-rule:evenodd;clip-rule:evenodd;fill:#494947;}
	.st15{fill-rule:evenodd;clip-rule:evenodd;fill:#363634;}
	.st16{fill-rule:evenodd;clip-rule:evenodd;fill:#161713;}
	.st17{fill-rule:evenodd;clip-rule:evenodd;fill:#807C7F;}
	.st18{fill-rule:evenodd;clip-rule:evenodd;fill:#BBB8BB;}
	.st19{fill-rule:evenodd;clip-rule:evenodd;fill:#EDECEC;}
	.st20{fill-rule:evenodd;clip-rule:evenodd;fill:#FF8F9E;}
	.st21{fill-rule:evenodd;clip-rule:evenodd;fill:#FFCCD3;}
	.st22{fill-rule:evenodd;clip-rule:evenodd;fill:#F8233B;}
	.st23{fill-rule:evenodd;clip-rule:evenodd;fill:#FE495D;}
	.st24{fill-rule:evenodd;clip-rule:evenodd;fill:#E9EDF2;}
	.st25{opacity:0.84;fill-rule:evenodd;clip-rule:evenodd;fill:url(#Path_3223_1_);enable-background:new    ;}
	.st26{fill-rule:evenodd;clip-rule:evenodd;fill:#0592D7;}
	.st27{fill-rule:evenodd;clip-rule:evenodd;fill:#8F8F8F;}
	.st28{fill-rule:evenodd;clip-rule:evenodd;fill:#FFFFFF;}
	.st29{fill-rule:evenodd;clip-rule:evenodd;fill:#CC9933;}
	.st30{fill-rule:evenodd;clip-rule:evenodd;fill:#FFCC00;}
	.st31{fill-rule:evenodd;clip-rule:evenodd;}
	.st32{fill-rule:evenodd;clip-rule:evenodd;fill:#9A2725;}
	.st33{fill-rule:evenodd;clip-rule:evenodd;fill:#F72F43;}
	.st34{fill-rule:evenodd;clip-rule:evenodd;fill:#3C3C3B;}
	.st35{fill-rule:evenodd;clip-rule:evenodd;fill:#575756;}
	.st36{fill-rule:evenodd;clip-rule:evenodd;fill:url(#Path_3272_1_);}
	.st37{fill-rule:evenodd;clip-rule:evenodd;fill:#2F76CC;}
	.st38{fill-rule:evenodd;clip-rule:evenodd;fill:#FCC39A;}
	.st39{fill-rule:evenodd;clip-rule:evenodd;fill:#1C5396;}
	.st40{fill-rule:evenodd;clip-rule:evenodd;fill:#878DA1;}
	.st41{fill-rule:evenodd;clip-rule:evenodd;fill:#2B374A;}
	.st42{fill-rule:evenodd;clip-rule:evenodd;fill:#08BFD5;}
	.st43{fill-rule:evenodd;clip-rule:evenodd;fill:#EDA070;}
	.st44{fill-rule:evenodd;clip-rule:evenodd;fill:#221F1F;}
	.st45{fill-rule:evenodd;clip-rule:evenodd;fill:#4F2B0C;}
	.st46{fill-rule:evenodd;clip-rule:evenodd;fill:#878787;}
	.st47{fill-rule:evenodd;clip-rule:evenodd;fill:#9BEEF8;}
	.st48{fill-rule:evenodd;clip-rule:evenodd;fill:#999999;}
</style>
<path id="Path_2957" class="st0" d="M116,17.8c2.3,0,4.2,1.9,4.2,4.2v45.8c0,2.3-1.9,4.2-4.2,4.2H21.6c-2.3,0-4.2-1.9-4.2-4.2V22
	c0-2.3,1.9-4.2,4.2-4.2H116z"/>
<path id="Path_2958" class="st1" d="M21.6,72H116c2.4,0,4.4-2,4.4-4.4V21.9c0-2.4-1.9-4.4-4.4-4.4H21.6c-2.4,0-4.4,2-4.4,4.4v45.7
	C17.2,70,19.1,72,21.6,72z M116,17.8c2.2,0,4,1.8,4,4v45.8c0,2.2-1.8,4-4,4H21.6c-2.2,0-4-1.8-4-4V21.9c0-2.2,1.8-4,4-4L116,17.8z"
	/>
<ellipse id="Ellipse_88" transform="matrix(0.9992 -3.964354e-02 3.964354e-02 0.9992 -2.6785 3.6314)" class="st2" cx="90.2" cy="69.4" rx="1.3" ry="0.3"/>
<ellipse id="Ellipse_89" transform="matrix(0.9992 -3.964354e-02 3.964354e-02 0.9992 -2.6679 3.3108)" class="st1" cx="82.1" cy="68.9" rx="1.3" ry="0.3"/>
<ellipse id="Ellipse_90" transform="matrix(0.9992 -3.964354e-02 3.964354e-02 0.9992 -2.5772 3.7525)" class="st3" cx="93.3" cy="66.9" rx="1.3" ry="0.3"/>
<ellipse id="Ellipse_91" transform="matrix(0.9936 -0.1132 0.1132 0.9936 -6.8455 11.3543)" class="st2" cx="96.5" cy="65.9" rx="0.6" ry="0.3"/>
<ellipse id="Ellipse_92" transform="matrix(0.9936 -0.1132 0.1132 0.9936 -6.6172 11.5532)" class="st1" cx="98.4" cy="64" rx="0.6" ry="0.3"/>
<ellipse id="Ellipse_93" transform="matrix(0.9936 -0.1132 0.1132 0.9936 -7.0532 10.381)" class="st2" cx="87.9" cy="67.3" rx="0.6" ry="0.3"/>
<ellipse id="Ellipse_94" transform="matrix(0.9936 -0.1132 0.1132 0.9936 -7.1214 10.805)" class="st3" cx="91.6" cy="68.1" rx="0.6" ry="0.3"/>
<ellipse id="Ellipse_95" transform="matrix(0.9936 -0.1132 0.1132 0.9936 -7.3081 10.1361)" class="st1" cx="85.6" cy="69.4" rx="0.6" ry="0.3"/>
<path id="Path_2959" class="st4" d="M138.4,62.7c0,0.1-0.1,0.2-0.2,0.2c0,0,0,0,0,0H0.2c-0.1,0-0.2-0.1-0.2-0.2
	c0-0.1,0.1-0.2,0.2-0.2l0,0h138C138.3,62.5,138.4,62.6,138.4,62.7C138.4,62.7,138.4,62.7,138.4,62.7L138.4,62.7z"/>
<path id="Path_2960" class="st5" d="M91.5,59.2c0.3,0,0.5-0.2,0.5-0.4c0-0.1,0-0.3-0.2-0.4l0-0.1l0,0c0.3-0.6,1-0.9,1.6-0.7
	c0.3,0.1,0.5,0.4,0.7,0.7c0.4,0.9,0.8,1.8,1,2.7c0.1,0.4,0,0.8-0.1,1.3c0.9-1.9,1.3-4,1.3-6.1c0-0.5,0-1.1-0.1-1.6
	c0-0.4-0.1-0.9-0.2-1.3c-0.5-2.3-1.5-4.4-2.9-6.3c-0.7-0.4-1.3-1-1.6-1.7c-0.1-0.3-0.2-0.5-0.3-0.8c0.2-0.4,0.2-0.8,0.2-1.3
	c0.1-0.2,0.3-0.3,0.4-0.4c0.6-0.8,1.4-0.7,1.9,0.4c0.9,0.5,0.9,1.2,0.4,2c-0.4,0.5-0.4,1.1-0.7,1.6c0,0,0.1,0.1,0.1,0.1
	c0.6,0.8,1.1,1.6,1.6,2.5c-0.1-1,0-2,0.4-2.9c0.4-0.8,1-1.6,1.6-2.3c0.4-0.6,1.2-0.7,1.8-0.2c0.3,0.2,0.4,0.5,0.5,0.8v0
	c-0.1,0-0.2,0.1-0.3,0.2c-0.3,0.2-0.4,0.6-0.2,0.9c0.1,0.1,0.3,0.2,0.4,0.3h0c0,0.3-0.1,0.6-0.2,0.9c0.7,2.9-0.9,3.9-3.2,4
	c-0.1,0-0.1,0.1-0.2,0.1c0.4,1.2,0.7,2.5,0.8,3.8c0.1,0.8,0.1,1.6,0,2.3v0c0.2-0.9,0.6-1.6,1.3-2.2c1-0.8,2.4-1.1,3.5-1.8
	c0.3-0.2,0.8-0.1,1,0.2c0.1,0.1,0.1,0.3,0.1,0.5v0c-0.2,0.1-0.3,0.1-0.5,0.2c-0.1,0-0.2,0.1-0.3,0.2c-0.3,0.2-0.4,0.6-0.2,0.9
	c0.1,0.1,0.3,0.2,0.4,0.3h0h0c-0.3,0.7-0.7,1.3-1.1,1.8c-0.5,2.5-2.5,2.8-4.6,2l0,0c-0.2,1-0.6,2-1,3h-3.6c0,0,0-0.1,0-0.1
	c0.3,0,0.7,0,1-0.1l-0.8-1l0,0l-0.4-0.5l0,0C91.3,60.2,91.3,59.7,91.5,59.2L91.5,59.2z"/>
<path id="Path_2961" class="st6" d="M109.7,57.2c0.4,0,0.8-0.3,0.8-0.7c0-0.2-0.1-0.4-0.2-0.6l-0.1-0.2l0,0c0.4-1,1.6-1.5,2.6-1.1
	c0.5,0.2,0.9,0.6,1.1,1.1c0.7,1.4,1.2,2.9,1.6,4.4c0.1,0.7,0.1,1.4-0.1,2c1.4-3.1,2.2-6.4,2.2-9.8c0-0.9,0-1.7-0.1-2.6
	c-0.1-0.7-0.2-1.4-0.3-2.1c-0.8-3.7-2.4-7.2-4.8-10.2c-1.1-0.6-2.1-1.6-2.7-2.8c-0.2-0.4-0.4-0.9-0.4-1.3c0.3-0.7,0.4-1.4,0.4-2.1
	c0.2-0.3,0.5-0.4,0.7-0.7c1-1.3,2.3-1.1,3,0.7c1.5,0.8,1.5,2,0.6,3.2c-0.6,0.8-0.7,1.8-1.2,2.6c0.1,0.1,0.1,0.1,0.2,0.2
	c1,1.2,1.8,2.6,2.5,4c-0.2-1.6,0-3.2,0.6-4.7c0.7-1.4,1.6-2.6,2.6-3.7c0.7-0.9,2-1.1,2.9-0.4c0.4,0.3,0.7,0.8,0.8,1.4l0,0.1
	c-0.1,0.1-0.3,0.2-0.4,0.3c-0.5,0.3-0.6,0.9-0.3,1.4c0.2,0.2,0.4,0.4,0.7,0.4h0c-0.1,0.5-0.1,1-0.3,1.5c1.2,4.7-1.4,6.4-5.1,6.5
	c-0.1,0-0.2,0.1-0.2,0.1c0.7,2,1.2,4.1,1.3,6.2c0.1,1.3,0.1,2.5,0,3.8l0,0c0.3-1.4,1-2.7,2.1-3.6c1.6-1.3,3.9-1.8,5.7-2.9
	c0.5-0.3,1.3-0.2,1.6,0.3c0.1,0.2,0.2,0.5,0.2,0.8l0,0c-0.3,0.1-0.5,0.2-0.8,0.4c-0.1,0.1-0.3,0.2-0.4,0.3c-0.5,0.3-0.6,0.9-0.3,1.4
	c0.2,0.2,0.4,0.4,0.7,0.4h0l0,0c-0.4,1.1-1.1,2-1.8,2.9c-0.8,4.1-4,4.5-7.5,3.3l0,0c-0.4,1.7-0.9,3.3-1.7,4.8h-5.9
	c0-0.1,0-0.1-0.1-0.2c0.5,0,1.1,0,1.6-0.1c-0.4-0.5-0.9-1.1-1.3-1.6c0,0,0,0,0,0c-0.2-0.3-0.4-0.5-0.7-0.8l0,0
	C109.4,58.8,109.5,58,109.7,57.2L109.7,57.2z"/>
<path id="Path_2962" d="M28.5,11.4c0.4-3,7.4-2.8,8.1,0c0.5-0.2,1.1-0.1,1.6,0.2c0.3,0.3,0.6,0.6,0.8,1c0.3,0.5,0.5,1,0.6,1.6
	c0.1,0.6-0.2,1.2-0.7,1.5c-0.6,0.1-1.2,0.1-1.8,0c-0.3-0.1-0.6-0.1-0.8-0.2c-0.1-0.4,0-0.7,0.1-1c-0.4,0.1-0.7,0.3-0.9,0.6
	c0,0.1-1.3,9.7-1.3,9.7c-0.4,0-0.7,0.1-1.1,0c-0.2-1.2-0.3-2.4-0.1-3.6c-0.4,0.7-0.7,1.4-0.9,2.2c-0.1,0.4-0.2,0.8-0.3,1.3
	c-3.1-0.6-7.2-2.5-7.9-5.9l0,0c0.1-0.2,0-0.5-0.3-0.6c-0.2-0.1-0.4,0-0.5,0.1c-0.1,0.1-0.2,0.2-0.2,0.2
	C23.3,16.3,24.9,14.4,28.5,11.4z"/>
<path id="Path_2963" class="st7" d="M73.4,86l1.7-0.9L72.4,78l-2.5,1.3L73.4,86z"/>
<path id="Path_2964" class="st8" d="M80.3,86c0.2,0.4,0.1,0.9-0.4,1.2l-3.4,1.8L75.3,88l0.4,1.3L74.4,90l-1.9-4.5l0.4-0.3l1.8-1.1
	l0.6-0.3l0.6,1.2l3.7,0.5C79.9,85.5,80.2,85.7,80.3,86z"/>
<path id="Path_2965" class="st7" d="M75.1,59.5l1.2-1.5l-5.2-5.6l-1.8,2.2L75.1,59.5z"/>
<path id="Path_2966" class="st8" d="M81.5,56.8c0.4,0.3,0.4,0.9,0.1,1.2L79.1,61l-1.5-0.4l0.9,1.1l-0.9,1.1l-3.5-3.5l0.3-0.4
	l1.2-1.7l0.4-0.5l1.1,0.9l3.6-1C81,56.6,81.3,56.6,81.5,56.8z"/>
<path id="Path_2967" class="st8" d="M20,53.9c0,0-5.3,11.3,16.6,8.3c0,0,11.7-12.9,11.3-14.5c0,0,5-5.1,4.7-5.1s-0.4-0.3,0-0.3
	s0.4-0.6,0.4-0.6s9,9.7,16.5,14.6l2.6-2.9c0,0-1-3.2-1.5-3.2s-0.7,0.1-0.7-0.5s0.3-1.2-0.2-1.2S58.4,35.7,58.4,35.7
	s-1.2-4.2-4.7-3.4S31.6,48.2,31.6,48.2L20,53.9z"/>
<path id="Path_2968" class="st8" d="M28.9,62.7l29-0.2l12.6,19.9l3.6-1.9l-0.8-0.3c0.1-1.2,0.1-2.3-0.1-3.5C72.9,76,72,76.2,72,76.2
	l-7.3-16.9c-1-3.1-4.1-5.1-7.3-4.8c-6.1-0.9-15.9-0.2-26.2,0.7L28.9,62.7z"/>
<path id="Path_2969" class="st7" d="M45.7,28.6c-1.1,0.2-1.9,1.2-1.8,2.4c0,0.1,0,0.2,0.1,0.3l-6,4.5l1.2,3.8l7.5-7.1
	c0.9-0.4,1.4-1.3,1.3-2.2C47.9,29.2,46.8,28.4,45.7,28.6C45.7,28.6,45.7,28.6,45.7,28.6L45.7,28.6z"/>
<path id="Path_2970" class="st9" d="M19.4,28.9l2.1,5.9l8.4,11.8l0.2-0.1c0.7-0.3,3.3-1.5,5.8-2.7c2.3-1.2,4.5-2.6,4.8-3.5
	c0-0.1,0.1-0.2,0.1-0.3l0,0c0.2-0.5,0.3-1,0.3-1.5c0-0.4,0-0.6,0.1-0.6s0.1,0.1,0.3,0.3c0,0,0,0,0,0c0.7,0.7,1.5,0.6,1.3,0.3
	s-0.1-0.3,0.2-0.7c0.2-0.3,1-1.3,1.3-1.8c0.1-0.2,0.2-0.3,0.2-0.3l-0.1-0.2L44.1,35l-1.7-2.6l-0.1-0.1c0,0-3.4,0.8-3.9,1.5
	s0.7,0.7-0.5,0.7s-2.3-1.5-1.5,0s0.6,2.1-0.4,1.8c-0.6,0-1.2,0.2-1.7,0.6l0,0c-0.4,0.3-0.8,0.5-1.2,0.8c-0.4,0.3-0.7,0.6-0.7,0.6
	l-6.5-13.1l-0.7-1.5C25,23,24.2,22.3,23.3,22l-0.2,0.4C21.7,24.5,20.4,26.6,19.4,28.9z"/>
<path id="Path_2971" class="st6" d="M19,47.7c-2,0.5,0.1,14.9,2.5,14.9c17.2,0.3,11.9-9.3,12.9-10.2s1.8-0.3,0.9-1.7
	c-0.6-1-1.5-0.9-1.5-1.5c0-0.4,0.2-0.8,0.4-1.1c0.5-0.8,0.9-1.6,1.1-2.5c0.3-0.6,0.5-1.2,0.6-1.8c0.2-0.9,0.2-1.9,0.1-2.9
	c-0.2-1.4-0.7-2.7-1.5-3.9l0,0c-0.1-0.1-0.2-0.3-0.3-0.4c-0.2-0.3-1.4-0.2-1.4-0.2l-2.5-10.3l1.4-4.1l-6.7-3.1L23.3,22L23,22.4
	c-1.4,2.1-2.6,4.2-3.6,6.5c-1,2.1-1.7,4.4-1.8,6.8c-0.1,5.6,0.9,7.2,0.9,7.2s-2.3,1.7-1.2,2.8S21,47.2,19,47.7z"/>
<path id="Path_2972" class="st8" d="M51.3,25.2l1.4,1c0.6,0.4,0.7,1.2,0.3,1.7c0,0,0,0,0,0.1l-3.4,4.3l-2,2.5
	c-0.5,0.6-1.3,0.7-1.9,0.2l-1.4-1c-0.6-0.4-0.7-1.2-0.3-1.7c0,0,0,0,0-0.1l0.2-0.3l4.2-5.2l1.1-1.4C49.9,24.8,50.7,24.7,51.3,25.2z"
	/>
<path id="Path_2973" class="st10" d="M50.5,25.1l1.5,1c0.3,0.2,0.5,0.4,0.5,0.8c0,0.3,0,0.6-0.3,0.9l-2,2.3l-1.1,1.2l-0.7,0.8
	l-1.6,1.8c-0.5,0.5-1.3,0.6-1.8,0.2l-1.2-0.8l-0.4-0.3c-0.4-0.2-0.6-0.7-0.5-1.1c0-0.2,0.1-0.3,0.2-0.5l4.7-5.4l0.7-0.8
	C49.2,24.8,49.9,24.7,50.5,25.1z"/>
<path id="Path_2974" class="st7" d="M48.3,31.8c-1.1,0.2-1.9,1.2-1.8,2.4c0,0.1,0,0.2,0.1,0.3l-6,4.5l1.2,3.8l7.5-7.1
	c0.9-0.4,1.4-1.3,1.3-2.2C50.5,32.4,49.4,31.6,48.3,31.8C48.3,31.8,48.3,31.8,48.3,31.8L48.3,31.8z"/>
<path id="Path_2975" class="st9" d="M23.9,25.1L23.9,25.1c-2,0.4-3.3,2.4-2.9,4.4c0,0.2,0.1,0.3,0.1,0.5l2.9,8l8.4,11.8
	c0,0,10-4.2,10.8-6.3s0.1-2.8,0.8-2.1s1.6,0.6,1.3,0.3s-0.1-0.3,0.2-0.7s1.5-2,1.5-2l-2.2-3.5c0,0-3.4,0.8-3.9,1.5s0.7,0.7-0.5,0.7
	s-2.3-1.5-1.5,0s0.6,2.1-0.4,1.8s-3.5,2-3.5,2l-7.2-14.6C27.2,25.6,25.5,24.8,23.9,25.1z"/>
<circle id="Ellipse_96" class="st7" cx="31.9" cy="16.4" r="5.3"/>
<path id="Path_2976" d="M25.7,10.6c0.4-3,7.4-2.8,8.1,0c0.5-0.2,1.1-0.1,1.6,0.2c0.3,0.3,0.6,0.6,0.8,1c0.3,0.5,2.3,2.2,2.6,1.7
	c0.7-1.1,2,1.3,1,2.9c-0.2,0.4-4.9-0.2-5.4-0.3c-0.3-0.1,0.2,0.1,0,0c-0.1-0.4-0.8-2.2-0.6-2.5c-0.4,0.1-0.7,0.3-0.9,0.6
	c0,0.1-1.3,9.7-1.3,9.7c-0.4,0-0.7,0.1-1.1,0c-0.2-1.2-0.3-2.4-0.1-3.6c-0.4,0.7-0.7,1.4-0.9,2.2c-0.1,0.4-0.2,0.8-0.3,1.3
	c-3.1-0.6-7.2-2.5-7.9-5.9C25.3,16.6,22,13.6,25.7,10.6z"/>
<ellipse id="Ellipse_97" transform="matrix(0.9896 -0.1439 0.1439 0.9896 -2.9426 10.8833)" class="st2" cx="73.7" cy="25.8" rx="1.2" ry="0.9"/>
<ellipse id="Ellipse_98" transform="matrix(0.9896 -0.1439 0.1439 0.9896 -2.9133 9.7154)" class="st1" cx="65.7" cy="25" rx="1.2" ry="0.9"/>
<ellipse id="Ellipse_99" transform="matrix(0.9896 -0.1439 0.1439 0.9896 -1.9806 11.1329)" class="st3" cx="76" cy="19.3" rx="1.2" ry="0.9"/>
<ellipse id="Ellipse_100" transform="matrix(1 -7.557180e-03 7.557180e-03 1 -0.1241 0.5958)" class="st11" cx="78.8" cy="16.7" rx="0.5" ry="0.8"/>
<ellipse id="Ellipse_101" transform="matrix(1 -7.557180e-03 7.557180e-03 1 -8.652809e-02 0.6046)" class="st1" cx="80" cy="11.8" rx="0.5" ry="0.8"/>
<ellipse id="Ellipse_102" transform="matrix(1 -7.557180e-03 7.557180e-03 1 -0.1532 0.5351)" class="st2" cx="70.7" cy="20.5" rx="0.5" ry="0.8"/>
<ellipse id="Ellipse_103" transform="matrix(1 -7.557180e-03 7.557180e-03 1 -0.1678 0.5646)" class="st3" cx="74.6" cy="22.5" rx="0.5" ry="0.8"/>
<ellipse id="Ellipse_104" transform="matrix(1 -7.557180e-03 7.557180e-03 1 -0.1951 0.5237)" class="st1" cx="69.2" cy="26.1" rx="0.5" ry="0.8"/>
<path id="Path_4608" class="st8" d="M51.9,29.4c-0.1-0.1,0-0.3,0.1-0.5c0.2-0.2,0.4-0.4,0.5-0.3s0,0.3-0.1,0.5
	C52.2,29.4,52,29.5,51.9,29.4z"/>
<path id="Path_4607" class="st8" d="M52.5,28.6c-0.1-0.1,0-0.3,0.1-0.5c0.2-0.2,0.4-0.4,0.5-0.3s0,0.3-0.1,0.5
	C52.8,28.5,52.6,28.7,52.5,28.6z"/>
<path id="Path_3197" class="st12" d="M241.2,30.3l-30,13.7l0,2.1l30-13.7V30.3z"/>
<path id="Path_3198" class="st13" d="M225.1,40.1L215,44.7v4l10.1-4.6V40.1z"/>
<path id="Path_3199" class="st14" d="M225.1,40.1L215,44.7l-4.5-2.1l10.1-4.6L225.1,40.1z"/>
<path id="Path_3200" class="st12" d="M215,48.8v-4l-4.5-2.1l0,4L215,48.8z"/>
<path id="Path_3201" class="st15" d="M235.1,37l-4.8,6.4l-3.2-1.4c-3.2-1.4,1.6-7.9,4.7-6.4L235.1,37z"/>
<path id="Path_3202" class="st16" d="M232.7,37.2c-1.8,0.8-3.1,2.5-3.3,4.5c0,1.7,1.5,2.4,3.3,1.5c1.8-0.8,3.1-2.5,3.3-4.5
	C236,37.1,234.6,36.4,232.7,37.2z"/>
<path id="Path_3203" class="st17" d="M232.7,37.9c-1.4,0.6-2.4,2-2.6,3.5c0,1.3,1.1,1.8,2.6,1.2c1.4-0.6,2.4-2,2.6-3.5
	C235.3,37.8,234.2,37.2,232.7,37.9z"/>
<path id="Path_3204" class="st18" d="M232.7,38.2c-1.2,0.6-2.1,1.7-2.3,3.1c0,1.1,1,1.6,2.3,1c1.3-0.6,2.1-1.7,2.3-3.1
	C235,38.1,234,37.6,232.7,38.2z"/>
<path id="Path_3205" class="st19" d="M232.7,38.5c-1.1,0.5-1.8,1.5-1.9,2.6c0,0.3,0.1,0.6,0.3,0.9c-0.1-0.2-0.1-0.3-0.1-0.5
	c0.1-1.2,0.9-2.2,2-2.7c0.4-0.2,0.9-0.3,1.3-0.1C233.9,38.2,233.2,38.1,232.7,38.5z"/>
<path id="Path_3206" class="st20" d="M244.6,10.8l-30,13.7l0,19.1l30-13.7V10.8z"/>
<path id="Path_3207" class="st21" d="M244.6,10.8l-30,13.7l-21.2-9.8L223.2,1L244.6,10.8z"/>
<path id="Path_3208" class="st20" d="M214.6,43.6l0-19.1l-21.2-9.8l0,19L214.6,43.6z"/>
<path id="Path_3209" class="st22" d="M211.3,25.9l-1.7,0.8l-14.2-6.6l1.7-0.8L211.3,25.9z"/>
<path id="Path_3210" class="st22" d="M209.6,39.5l0-12.9l1.7-0.8l0.1,12.8L209.6,39.5z"/>
<path id="Path_3211" class="st22" d="M209.6,39.5l0-12.9l-14.2-6.6l0,12.9L209.6,39.5z"/>
<path id="Path_3212" class="st16" d="M204.3,50.4l-1.5,3l-4.7-2.2L204.3,50.4z"/>
<path id="Path_3213" class="st19" d="M198.2,54.3l-0.9,1.2l-4.1-1.9c-0.6-0.3,0.3-1.5,0.9-1.2L198.2,54.3z"/>
<path id="Path_3214" class="st15" d="M201.5,52.3l-4.8,6.4l-3.2-1.4c-3.2-1.4,1.6-7.9,4.7-6.4L201.5,52.3z"/>
<path id="Path_3215" class="st16" d="M199.3,52.5c-1.8,0.8-3.1,2.5-3.3,4.5c0,1.7,1.5,2.4,3.3,1.5c1.8-0.8,3.1-2.5,3.3-4.5
	C202.6,52.3,201.1,51.6,199.3,52.5z"/>
<path id="Path_3216" class="st17" d="M199.3,53.1c-1.4,0.6-2.4,2-2.6,3.5c0,1.3,1.2,1.8,2.6,1.2c1.4-0.6,2.4-2,2.6-3.5
	C201.8,53,200.7,52.5,199.3,53.1z"/>
<path id="Path_3217" class="st18" d="M199.3,53.4c-1.2,0.6-2.1,1.7-2.3,3.1c0,1.1,1,1.6,2.3,1c1.2-0.6,2.1-1.7,2.3-3.1
	C201.5,53.3,200.5,52.9,199.3,53.4z"/>
<path id="Path_3218" class="st19" d="M199.3,53.7c-1.1,0.5-1.8,1.5-1.9,2.6c0,0.3,0.1,0.6,0.3,0.8c-0.1-0.2-0.1-0.3-0.1-0.5
	c0.1-1.2,0.9-2.2,2-2.7c0.4-0.2,0.9-0.3,1.3-0.1C200.4,53.4,199.8,53.4,199.3,53.7z"/>
<path id="Path_3219" class="st23" d="M177.6,49.9c0-6,0-17.9,8.4-21.8l5.9-2.7l14.5,13.2c-7.3,5.8-11.7,11.3-12.4,18.8
	C188,55.9,181,52.8,177.6,49.9z"/>
<path id="Path_3220" class="st23" d="M180.2,33.9c1.2-2.6,3.3-4.7,5.8-5.9l1.5-0.7l0,0l13.2,6.1l4.8,4.4l-9.1,3.7L180.2,33.9z"/>
<path id="Path_3221" class="st24" d="M211,32.2l-9.3,3.7l-16.3-7.5l8.2-3.7c0.3-0.1,0.7-0.1,1,0L211,32.2z"/>
<path id="Path_3222" class="st23" d="M194,57.4c0-6,0-17.9,8.4-21.8l7.5-3.4c0.3-0.1,0.7-0.1,1,0c0.3,0.1,0.5,0.5,0.5,0.8v16.4
	l-8.6,3.9c-0.3-1.7-2-2.4-4-1.5c-2.1,0.9-3.7,2.9-4,5.2L194,57.4z"/>
<linearGradient id="Path_3223_1_" gradientUnits="userSpaceOnUse" x1="-596.6306" y1="996.2514" x2="-596.2296" y2="996.8404" gradientTransform="matrix(20.809 0 0 -19.5299 12597.958 19505.8457)">
	<stop  offset="0" style="stop-color:#005199"/>
	<stop  offset="0.61" style="stop-color:#0072CC"/>
	<stop  offset="0.87" style="stop-color:#FFFFFF"/>
	<stop  offset="1" style="stop-color:#006799"/>
</linearGradient>
<path id="Path_3223" class="st25" d="M198.5,46.2v-5.6l-17.6-8c-2.2,3.5-3,8-3.2,12c3.4,5,10.4,8,16.3,7.5
	C194.8,49.8,197,48.2,198.5,46.2z"/>
<path id="Path_3224" class="st26" d="M197.4,39.9l10.3-4.7c0.2,3.8-2.2,11.5-6.7,13.6l-6.9,3.2C194.3,48,195.1,43.5,197.4,39.9z"/>
<path id="Path_3225" class="st27" d="M186,53.1c0.3,0.2,0.6,0.5,0.6,0.8c0,0.3-0.3,0.4-0.6,0.3c-0.3-0.2-0.6-0.5-0.6-0.8
	C185.4,53,185.7,52.9,186,53.1z"/>
<path id="Path_3226" class="st28" d="M186,53.2c0.3,0.1,0.5,0.4,0.5,0.7c0,0.2-0.2,0.3-0.5,0.2c-0.3-0.1-0.5-0.4-0.5-0.7
	C185.5,53.2,185.8,53.1,186,53.2z"/>
<path id="Path_3227" class="st27" d="M184.6,52.4c0.3,0.2,0.6,0.5,0.6,0.8c0,0.3-0.3,0.4-0.6,0.3c-0.3-0.2-0.5-0.5-0.6-0.8
	C184,52.4,184.3,52.3,184.6,52.4z"/>
<path id="Path_3228" class="st28" d="M184.6,52.5c0.3,0.1,0.5,0.4,0.5,0.7c0,0.2-0.2,0.4-0.5,0.2c-0.3-0.1-0.5-0.4-0.5-0.7
	C184.1,52.5,184.4,52.4,184.6,52.5z"/>
<path id="Path_3229" class="st27" d="M183.2,51.8c0.3,0.1,0.6,0.5,0.6,0.8c0,0.3-0.3,0.4-0.6,0.3c-0.3-0.2-0.6-0.5-0.6-0.8
	C182.6,51.8,182.9,51.6,183.2,51.8z"/>
<path id="Path_3230" class="st28" d="M183.2,51.9c0.3,0.1,0.5,0.4,0.5,0.7c0,0.2-0.2,0.4-0.5,0.2c-0.3-0.1-0.4-0.4-0.5-0.7
	C182.7,51.9,182.9,51.8,183.2,51.9z"/>
<path id="Path_3231" class="st15" d="M192.8,52.1c-0.2,0.1-0.3,0.3-0.5,0.4c-0.8,1.2-1.4,2.5-2.1,3.8c1.2,0.4,2.4,0.8,3.6,1.1
	c0-1.5,0-3.4,0.1-5.4l0,0C193.6,52.1,193.2,52.1,192.8,52.1z"/>
<path id="Path_3232" class="st27" d="M192.1,54.9c0.4,0.2,0.8,0.6,0.8,1.1c0,0.4-0.4,0.6-0.8,0.4c-0.4-0.2-0.8-0.6-0.8-1.1
	C191.3,54.9,191.6,54.7,192.1,54.9z"/>
<path id="Path_3233" class="st28" d="M192.1,55c0.4,0.2,0.6,0.5,0.6,0.9c0,0.3-0.3,0.5-0.6,0.3c-0.4-0.2-0.6-0.5-0.6-0.9
	C191.4,55,191.7,54.9,192.1,55z"/>
<path id="Path_3234" class="st29" d="M192.8,53.4c0.4,0.2,0.8,0.6,0.8,1.1c0,0.4-0.4,0.6-0.8,0.4c-0.4-0.2-0.8-0.6-0.8-1.1
	C192,53.3,192.4,53.2,192.8,53.4z"/>
<path id="Path_3235" class="st30" d="M192.8,53.5c0.4,0.2,0.6,0.5,0.6,0.9c0,0.3-0.3,0.5-0.6,0.3c-0.4-0.2-0.6-0.5-0.6-0.9
	C192.2,53.5,192.5,53.3,192.8,53.5z"/>
<path id="Path_3236" class="st15" d="M178.2,45.2c0.2,0.7,0.4,1.3,0.5,1.7c0.2,1.4,0.4,2.8,0.5,4.2c-0.5-0.4-1.1-0.8-1.6-1.2
	c0-1.5,0-3.4,0.1-5.4C177.8,44.8,178,45,178.2,45.2z"/>
<path id="Path_3237" class="st27" d="M178.3,48.7c0.3,0.3,0.5,0.7,0.5,1.1c0,0.4-0.2,0.6-0.5,0.4c-0.3-0.3-0.5-0.7-0.5-1.1
	C177.8,48.7,178,48.5,178.3,48.7z"/>
<path id="Path_3238" class="st28" d="M178.3,48.9c0.2,0.2,0.4,0.6,0.4,0.9c0,0.3-0.2,0.5-0.4,0.3c-0.2-0.2-0.4-0.6-0.4-0.9
	C177.9,48.8,178.1,48.7,178.3,48.9z"/>
<path id="Path_3239" class="st29" d="M178.1,46.6c0.3,0.3,0.5,0.7,0.5,1.1c0,0.4-0.2,0.6-0.5,0.4c-0.3-0.3-0.5-0.7-0.5-1.1
	C177.6,46.6,177.8,46.4,178.1,46.6z"/>
<path id="Path_3240" class="st30" d="M178.1,46.7c0.2,0.2,0.4,0.6,0.4,0.9c0,0.3-0.2,0.5-0.4,0.3c-0.2-0.2-0.4-0.6-0.4-0.9
	C177.7,46.7,177.9,46.6,178.1,46.7z"/>
<path id="Path_3241" class="st31" d="M197.8,40.2l9.2-4.2c-5.3,9.4-5.9,11.9-12.3,15.3C195,47.6,195.7,43.4,197.8,40.2z"/>
<path id="Path_3242" class="st0" d="M185.5,32.7l0.2-0.3l0.3,0.2l-0.2,0.3c-0.1,0.1-0.2,0.3-0.2,0.4c0,0.1,0,0.1,0,0.2
	c0.1,0,0.1,0,0.2,0c0.1-0.1,0.2-0.2,0.2-0.3c0.1-0.1,0.2-0.2,0.2-0.4c0-0.1,0.1-0.3,0.1-0.4V32c0-0.2,0-0.3,0.1-0.4
	c0.1-0.2,0.1-0.3,0.3-0.5c0.1-0.2,0.3-0.4,0.5-0.5c0.2-0.1,0.4-0.1,0.5,0c0.2,0,0.3,0.2,0.2,0.4c0,0,0,0,0,0
	c-0.1,0.3-0.2,0.5-0.4,0.7l-0.1,0.2l-0.3-0.2l0.2-0.2c0.1-0.1,0.2-0.2,0.2-0.3c0-0.1,0-0.1,0-0.2c-0.1,0-0.1,0-0.2,0
	c-0.1,0.1-0.2,0.1-0.2,0.2c-0.1,0.1-0.1,0.2-0.1,0.3c0,0.1,0,0.2,0,0.3v0.4c0,0.2,0,0.3-0.1,0.5c-0.2,0.5-0.5,0.8-0.9,1.1
	c-0.2,0.1-0.4,0.1-0.6,0c-0.2-0.1-0.3-0.2-0.2-0.4c0,0,0,0,0,0C185.2,33.1,185.3,32.9,185.5,32.7z"/>
<path id="Path_3243" class="st0" d="M186.3,34.2l2.4-3.2l0.8,0.4l-0.3,0.4l-0.4-0.2l-0.7,0.9l0.4,0.2l-0.3,0.4l-0.4-0.2l-0.8,1
	l0.5,0.2l-0.3,0.4L186.3,34.2z"/>
<path id="Path_3244" class="st0" d="M189.8,31.8l0.2-0.2l0.6,0.3c0.1,0,0.2,0.1,0.2,0.2c0,0.1,0,0.2-0.1,0.3
	c-0.1,0.2-0.2,0.3-0.3,0.5c-0.1,0.2-0.2,0.3-0.4,0.4c-0.1,0-0.1,0.1-0.2,0.1V33c0.1-0.1,0.1-0.2,0.2-0.3l0,0
	c0.1-0.1,0.2-0.2,0.2-0.4c0-0.1,0-0.1-0.1-0.1c0,0,0,0,0,0l-0.1-0.1l-0.2,0.3L189.8,31.8z M189.1,33.5l-0.1-0.1l-1.1,1.5l-0.4-0.2
	l2.2-3v0.7l-0.5,0.6l0.1,0.1c0,0,0.1,0,0.1,0c0.1,0,0.1-0.1,0.1-0.1l0,0v0.5c-0.1,0-0.1,0-0.2,0c0.1,0.1,0.1,0.2,0,0.3
	c-0.2,0.3-0.3,0.6-0.6,0.8c-0.3,0.4-0.5,0.6-0.5,0.7l-0.3-0.2c0,0,0.3-0.4,0.8-1.2c0.1-0.1,0.1-0.2,0.2-0.3
	C189.3,33.6,189.2,33.6,189.1,33.5L189.1,33.5z"/>
<path id="Path_3245" class="st0" d="M189.4,35.7l2-3.4l0.3,0.2l-0.9,1.5l-0.6,1.1l0,0l0.8-1l1.2-1.4l0.3,0.2l-2.7,3L189.4,35.7z"/>
<path id="Path_3246" class="st0" d="M190.7,36.3l2.4-3.2l0.4,0.2l-2.4,3.2L190.7,36.3z"/>
<path id="Path_3247" class="st0" d="M193.2,36.3c-0.2,0.3-0.4,0.5-0.6,0.6c-0.2,0.1-0.4,0.1-0.6,0c-0.2-0.1-0.3-0.2-0.2-0.4
	c0.1-0.3,0.2-0.5,0.4-0.7l1-1.4c0.4-0.5,0.6-0.7,0.9-0.8c0.1,0,0.2,0,0.3,0c0.3,0.2,0.3,0.5-0.1,1.1l-0.3,0.4l-0.4-0.2l0.3-0.4
	c0.1-0.1,0.2-0.2,0.2-0.4c0-0.1,0-0.1,0-0.2s-0.1,0-0.2,0.1c-0.1,0.1-0.2,0.2-0.3,0.3l-1.1,1.5c-0.1,0.1-0.2,0.3-0.2,0.4
	c0,0.1,0,0.1,0,0.2c0,0,0.1,0,0.2-0.1c0.1-0.1,0.2-0.2,0.3-0.4l0.3-0.5l0.4,0.2L193.2,36.3z"/>
<path id="Path_3248" class="st0" d="M193.1,37.4l2.4-3.2l0.8,0.4l-0.3,0.4l-0.4-0.2l-0.7,0.9l0.4,0.2l-0.3,0.4l-0.4-0.2l-0.8,1
	l0.4,0.2l-0.3,0.4L193.1,37.4z"/>
<path id="Path_3249" class="st20" d="M213.2,22.1l1.4-1.2l-5.1-2.4l-1.4,1.2L213.2,22.1z"/>
<path id="Path_3250" class="st22" d="M219.7,18.6l-5.1,2.3l-1.4,1.2l6.5-2.9L219.7,18.6z"/>
<path id="Path_3251" class="st23" d="M219.7,18.6l-5.1,2.3l-5.1-2.4l5.1-2.3L219.7,18.6z"/>
<path id="Path_3252" class="st20" d="M203.9,17.8l1.4-1.2l-5.1-2.4l-1.4,1.2L203.9,17.8z"/>
<path id="Path_3253" class="st22" d="M210.3,14.3l-5.1,2.3l-1.4,1.2l6.5-2.9V14.3z"/>
<path id="Path_3254" class="st23" d="M210.3,14.3l-5.1,2.3l-5.1-2.4l5.1-2.3L210.3,14.3z"/>
<path id="Path_3255" class="st32" d="M196.3,23l12.3,5.7c0.1,0,0.1-0.1,0.1-0.2v-0.1l-12.6-5.8v0.1C196.1,22.8,196.2,22.9,196.3,23z
	"/>
<path id="Path_3256" class="st32" d="M196.3,21.6l12.3,5.7c0.1,0,0.1-0.1,0.1-0.2V27l-12.6-5.8v0.1
	C196.1,21.4,196.2,21.5,196.3,21.6z"/>
<path id="Path_3257" class="st32" d="M196.3,23.5l12.3,5.7c0.1,0,0.1-0.1,0.1-0.2v-0.1l-12.6-5.8v0.1
	C196.1,23.2,196.2,23.4,196.3,23.5z"/>
<path id="Path_3258" class="st32" d="M196.3,22l12.3,5.7c0.1,0,0.1-0.1,0.1-0.2v-0.1l-12.6-5.8v0.1C196.1,21.8,196.2,22,196.3,22z"
	/>
<path id="Path_3259" class="st32" d="M196.3,23.9l12.3,5.7c0.1,0,0.1-0.1,0.1-0.2v-0.1l-12.6-5.8v0.1
	C196.1,23.7,196.2,23.8,196.3,23.9z"/>
<path id="Path_3260" class="st32" d="M196.3,22.5l12.3,5.7c0.1,0,0.1-0.1,0.1-0.2v-0.1l-12.6-5.8v0.1
	C196.1,22.3,196.2,22.4,196.3,22.5z"/>
<path id="Path_3261" class="st20" d="M196.2,22.5l12.4,5.8c0.1,0.1,0.2,0.2,0.1,0.4v0.1l-12.7-5.9v0
	C196.1,22.5,196.2,22.4,196.2,22.5z"/>
<path id="Path_3262" class="st20" d="M196.2,21.1l12.4,5.8c0.1,0.1,0.2,0.2,0.1,0.4v0.1l-12.7-5.9v-0.1
	C196.1,21.1,196.2,21,196.2,21.1z"/>
<path id="Path_3263" class="st20" d="M196.2,22.9l12.4,5.8c0.1,0.1,0.2,0.2,0.1,0.4v0.1l-12.7-5.9v-0.1
	C196.1,23,196.2,22.9,196.2,22.9z"/>
<path id="Path_3264" class="st20" d="M196.2,21.5l12.4,5.8c0.1,0.1,0.2,0.2,0.1,0.4v0.1l-12.7-5.9v-0.1
	C196.1,21.6,196.2,21.5,196.2,21.5z"/>
<path id="Path_3265" class="st20" d="M196.2,23.4l12.4,5.8c0.1,0.1,0.2,0.2,0.1,0.4v0.1l-12.7-5.9v-0.1
	C196.1,23.5,196.2,23.4,196.2,23.4z"/>
<path id="Path_3266" class="st20" d="M196.2,22l12.4,5.8c0.1,0.1,0.2,0.2,0.1,0.4v0.1l-12.7-5.9v-0.1C196.1,22.1,196.2,22,196.2,22z
	"/>
<path id="Path_3267" class="st33" d="M209.7,44.3l-1.3,0.6c-0.2,0.1-0.3,0.2-0.3,0.4v0.8c0,0.1,0.1,0.2,0.2,0.2c0,0,0.1,0,0.1,0
	l1.3-0.6c0.2-0.1,0.3-0.2,0.3-0.4v-0.8c0-0.1-0.1-0.2-0.2-0.2C209.7,44.3,209.7,44.3,209.7,44.3z"/>
<path id="Path_3268" class="st32" d="M208.1,46.3l1.2-0.6c0.2-0.1,0.3-0.2,0.3-0.4v-0.8c0,0,0,0,0-0.1l-1.2,0.6
	c-0.2,0.1-0.3,0.2-0.3,0.4V46.3C208.1,46.2,208.1,46.2,208.1,46.3z"/>
<path id="Path_3269" class="st34" d="M210.5,44.6l-0.4-0.2V45l0.3,0.2L210.5,44.6z"/>
<path id="Path_3270" class="st34" d="M208.3,45.7l-0.4-0.2V46l0.4,0.2L208.3,45.7z"/>
<path id="Path_3271" class="st35" d="M210.4,44.6l-2.1,1c-0.1,0-0.1,0.1-0.1,0.2v0.3c0,0,0,0.1,0.1,0.1c0,0,0,0,0,0l2.1-1
	c0.1,0,0.1-0.1,0.1-0.2v-0.3C210.5,44.7,210.5,44.6,210.4,44.6C210.4,44.6,210.4,44.6,210.4,44.6z"/>
<g id="Group_255" transform="translate(222.994 105.411)">
	
		<linearGradient id="Path_3272_1_" gradientUnits="userSpaceOnUse" x1="-796.1281" y1="861.3001" x2="-795.1281" y2="861.3001" gradientTransform="matrix(11.64 0 0 -12.121 9221.9307 10373.1279)">
		<stop  offset="0" style="stop-color:#32DFDE"/>
		<stop  offset="0.15" style="stop-color:#32DBDA"/>
		<stop  offset="0.29" style="stop-color:#34D0CF"/>
		<stop  offset="0.57" style="stop-color:#9BEEF8"/>
		<stop  offset="0.71" style="stop-color:#9BEEF8"/>
		<stop  offset="1" style="stop-color:#FFCCD3"/>
	</linearGradient>
	<path id="Path_3272" class="st36" d="M-33.4-68.9c-1,2.1-2.6,3.9-4.6,5l-7,3.3c0.3-4,1-8.6,3.3-12.1L-33.4-68.9z"/>
</g>
<path id="Path_3273" class="st37" d="M244.6,25.3l-30,13.7l0,2.4l30-13.7V25.3z"/>
<path id="Path_3274" class="st0" d="M218,34.7v-0.4l0.9-0.4v0.4c0,0.2,0,0.3,0.1,0.5c0.1,0.1,0.2,0.1,0.3,0c0.1,0,0.2-0.1,0.3-0.2
	c0.1-0.1,0.1-0.3,0.1-0.4c0-0.2,0-0.3-0.1-0.4c-0.1-0.1-0.3-0.2-0.4-0.2l-0.5-0.1c-0.2-0.1-0.4-0.1-0.5-0.3
	c-0.1-0.1-0.2-0.3-0.2-0.5c0-0.3,0.1-0.7,0.3-1c0.3-0.3,0.6-0.6,1-0.7c0.5-0.2,0.8-0.3,1-0.1c0.2,0.2,0.3,0.5,0.2,0.8v0.3l-0.9,0.4
	v-0.3c0-0.1,0-0.3-0.1-0.4c-0.1-0.1-0.1-0.1-0.3,0c-0.1,0-0.2,0.1-0.3,0.2c-0.1,0.1-0.1,0.2-0.1,0.4c0,0.1,0,0.2,0.1,0.3
	c0.1,0.1,0.2,0.1,0.3,0.2l0.5,0.2c0.2,0.1,0.4,0.2,0.6,0.3c0.1,0.2,0.2,0.4,0.2,0.6c0,0.4-0.1,0.7-0.3,1c-0.3,0.3-0.6,0.6-1,0.8
	c-0.5,0.2-0.8,0.3-1,0.1C218.1,35.4,218,35,218,34.7z"/>
<path id="Path_3275" class="st0" d="M221.8,34.3l0-4.5l2.1-0.9l0,0.6l-1.1,0.5l0,1.3l1.1-0.5l0,0.6l-1.1,0.5l0,1.4l1.2-0.5l0,0.6
	L221.8,34.3z"/>
<path id="Path_3276" class="st0" d="M226.6,27.6l0.2-0.1c0.2-0.1,0.5-0.2,0.8-0.2c0.1,0,0.3,0.1,0.3,0.2c0.1,0.2,0.1,0.4,0.1,0.6
	c0,0.2,0,0.5-0.1,0.7c-0.1,0.2-0.2,0.4-0.4,0.5c0.2-0.1,0.4,0,0.4,0.1c0.1,0.3,0.2,0.7,0.1,1.1c0,0.3,0,0.6,0,0.9l-0.9,0.4v-1.6
	c0-0.2,0-0.3-0.1-0.3c-0.1,0-0.1,0-0.3,0v-0.6c0.1,0,0.2-0.1,0.2-0.2c0.1-0.1,0.1-0.2,0.1-0.3c0-0.1,0-0.3,0-0.4l0,0
	c0-0.2,0-0.3-0.1-0.4c-0.1,0-0.2,0-0.3,0L226.6,27.6z M226.5,30l-0.3,0.1v2.1l-0.9,0.4v-4.5l1.3-0.6v0.5l-0.1,0l-0.3,0.1v1.3
	l0.4-0.2l0,0L226.5,30L226.5,30z"/>
<path id="Path_3277" class="st0" d="M230,30.5l-0.9-4l0.9-0.4l0.4,1.8l0.2,1.3l0,0l0.2-1.5l0.3-2.2l0.9-0.4l-0.9,4.9L230,30.5z"/>
<path id="Path_3278" class="st0" d="M233.2,29.1l0-4.5l0.9-0.4l0,4.5L233.2,29.1z"/>
<path id="Path_3279" class="st0" d="M238.3,25.6c0,0.4-0.1,0.8-0.3,1.1c-0.3,0.3-0.6,0.6-1,0.8c-0.3,0.2-0.7,0.2-1,0.1
	c-0.2-0.1-0.3-0.4-0.3-0.8v-1.9c0-0.6,0.3-1.2,0.7-1.6c0.2-0.2,0.4-0.3,0.6-0.4c0.9-0.4,1.3-0.2,1.3,0.6v0.6l-0.9,0.4v-0.6
	c0-0.2,0-0.3-0.1-0.5c-0.1-0.1-0.2-0.1-0.3,0c-0.2,0.1-0.3,0.2-0.4,0.3c-0.1,0.2-0.1,0.3-0.1,0.5v2.1c0,0.2,0,0.3,0.1,0.5
	c0.1,0.1,0.2,0.1,0.3,0c0.1-0.1,0.3-0.2,0.3-0.3c0.1-0.2,0.1-0.4,0.1-0.6v-0.7l0.9-0.4L238.3,25.6z"/>
<path id="Path_3280" class="st0" d="M239.5,26.2l0-4.5l2.1-0.9l0,0.6l-1.1,0.5l0,1.3l1.1-0.5v0.6l-1.1,0.5l0,1.4l1.2-0.5l0,0.6
	L239.5,26.2z"/>
<path id="Path_3281" class="st0" d="M222,36.4c0-0.1,0-0.2,0.1-0.3c0-0.1,0.1-0.1,0.1-0.2c0.1-0.1,0.2-0.2,0.4-0.3
	c0.2-0.1,0.4-0.1,0.4,0c0,0.1,0.1,0.2,0.1,0.3v0.2l-0.3,0.1V36c0-0.1,0-0.2,0-0.2c0,0,0-0.1-0.1-0.1c0,0-0.1,0-0.1,0
	c-0.1,0-0.1,0.1-0.2,0.2c0,0.1-0.1,0.2,0,0.3v0.8c0,0.1,0,0.2,0,0.3c0,0,0.1,0.1,0.2,0c0.1,0,0.1-0.1,0.2-0.2c0-0.1,0-0.2,0-0.3
	v-0.1l0.3-0.2v0.2c0,0.2,0,0.4-0.1,0.5c-0.1,0.1-0.2,0.3-0.4,0.3c-0.2,0.1-0.3,0.1-0.4,0c-0.1-0.1-0.1-0.3-0.1-0.4L222,36.4z"/>
<path id="Path_3282" class="st0" d="M225.2,34.4L226,34v0.2l-0.5,0.2v0.7l0.5-0.2v0.2l-0.5,0.2l0,0.7l0.5-0.2l0,0.2l-0.8,0.4
	L225.2,34.4z"/>
<path id="Path_3283" class="st0" d="M229,32.6l0.3-0.1l0,1.9l-0.2,0.1l-0.6-1.1l0,0.5l0,0.8l-0.3,0.1l0-1.9l0.2-0.1l0.6,1l0-0.5
	L229,32.6z"/>
<path id="Path_3284" class="st0" d="M231.4,31.5l0.9-0.4v0.2l-0.3,0.1l0,1.7l-0.3,0.1l0-1.7l-0.3,0.1V31.5z"/>
<path id="Path_3285" class="st0" d="M234.9,30L234.9,30c0.1-0.1,0.3-0.1,0.4-0.1c0.1,0,0.1,0.1,0.1,0.2c0,0.1,0,0.1,0,0.2
	c0,0.1,0,0.2-0.1,0.3c0,0.1-0.1,0.2-0.2,0.2h0.2c0,0,0.1,0.1,0.1,0.2c0,0.1,0,0.3,0,0.4c0,0.1,0,0.2,0,0.3l-0.3,0.1
	c0-0.2,0-0.4,0-0.6c0-0.1,0-0.2-0.1-0.2c-0.1,0-0.1,0-0.1,0v-0.2c0,0,0.1,0,0.1-0.1c0,0,0.1-0.1,0.1-0.1c0-0.1,0-0.2,0-0.2l0,0
	c0-0.2,0-0.2-0.1-0.2c-0.1,0-0.1,0-0.2,0L234.9,30z M234.4,30.2l0.5-0.2v0.2l0,0l-0.2,0.1v0.7l0.2-0.1l0,0V31l0,0l-0.2,0.1V32
	l-0.3,0.1L234.4,30.2z"/>
<path id="Path_3286" class="st0" d="M237.6,28.7l0.8-0.4v0.2l-0.5,0.2l0,0.7l0.5-0.2v0.2l-0.5,0.2l0,0.7l0.5-0.2v0.2l-0.8,0.4
	L237.6,28.7z"/>
<path id="Path_4610" class="st38" d="M146.1,47.5c0,0.4-0.1,0.7-0.4,1c-0.2,0.3-0.5,0.5-0.8,0.8c-0.3,0.3-0.4,0.2-0.7,0.6
	c-0.2-0.2-0.4-0.5,0.2-1c0-0.3,0.2-0.6,0.5-0.8C144.8,46.7,146,47,146.1,47.5z"/>
<path id="Path_4611" class="st39" d="M161.9,52.2c-0.7,1.8-1.5,2.2-2,4c-1,4.9-3.1,6.6-2.7,11.3c-1.3,0.9-4.1,1.9-4.4-0.1
	c-0.7-7-1.4-14.3,0.2-20.6c2.4,0.2,4.7,0.7,7,1.3C160.1,48.7,162,51.9,161.9,52.2z"/>
<path id="Path_4612" class="st37" d="M166.1,72.9c1,3.6-3.1,3.6-5,0.9c-0.9-1.7-1.7-3.4-2.2-5.2c-2-5.5-2.3-8.7-2.7-14
	c-1.4-0.7-0.8-2.8-0.9-4.3c4.6,3.1,8,0.7,9.2-0.2c0.5,2.7,0.5,10.9,0.4,13.5C164.9,66.6,165.3,69.8,166.1,72.9L166.1,72.9z"/>
<path id="Path_4613" class="st40" d="M156.2,76c0,0-0.6,2.4,0.6,1.9c0.5-0.2,0.5,0.9,0.4,1.3c-0.1,0.4-0.8,0.9-1.5,1.2
	c-0.8,0.4-1.5,0.9-2.1,1.5c-1.1,0.5-2.3,0.6-3.5,0.3c-0.5-0.2-0.8-0.5-0.7-0.9c0.1-0.1,0-0.2,0.2-0.3c0.2-0.2,1.5-1.2,2.1-1.5
	c1-0.6,1.7-1.6,2.1-2.7c0.1-0.3,0.5-1.4,0.5-1.4S154.9,75.2,156.2,76z"/>
<path id="Path_4614" class="st41" d="M156.4,75.7c-0.1,1.1,0.8,0.9,0.6,2.9c-0.1,0.7-1.5,1.2-2,1.5c-0.5,0.3-1,0.7-1.3,1.2
	c-0.4,0.4-0.9,0.6-1.4,0.6c-1.4,0.2-3.1,0-2.9-1.2c0.1-0.5,1.9-1.3,2.5-1.6c1.5-0.8,1.5-2.8,1.6-3.1c0.1-0.4,0.6-0.5,0.6-0.5
	C155,75.1,155.8,75.2,156.4,75.7z"/>
<path id="Path_4615" class="st40" d="M169,82.9c0,0-0.3,2.5,0.8,1.8c0.5-0.3,0.6,0.9,0.5,1.2c0,0.5-0.7,1-1.3,1.4
	c-0.7,0.5-1.3,1-1.9,1.7c-1,0.7-2.3,0.9-3.4,0.7c-0.5-0.1-0.9-0.4-0.8-0.8c0-0.1,0-0.2,0.2-0.4c0.6-0.6,1.2-1.2,1.9-1.7
	c0.9-0.7,1.5-1.7,1.8-2.9c0.1-0.4,0.4-1.5,0.4-1.5S167.6,82.2,169,82.9z"/>
<path id="Path_4616" class="st41" d="M169.2,82.5c0,1.1,0.9,0.8,0.9,2.8c0,0.7-1.3,1.3-1.8,1.7c-0.5,0.4-0.9,0.8-1.1,1.3
	c-0.3,0.4-0.8,0.7-1.3,0.8c-1.4,0.4-3.1,0.4-3-0.9c0-0.5,1.8-1.5,2.3-1.9c1.5-1,1-3,1.1-3.3c0.1-0.4,0.7-0.5,0.7-0.5
	C167.7,82.1,168.5,82.1,169.2,82.5z"/>
<path id="Path_4617" class="st39" d="M156.9,65.4c-1.7-4.3-3.3-2.3-4.3-0.3c0.5,4.2,0.6,8.4,0.5,12.6c1,1.5,4,1.4,4.1,0.8
	C157.1,72.5,158.4,70.9,156.9,65.4z"/>
<path id="Path_4618" class="st37" d="M164,70.8c-3.2-3.2-2.7,0.6-2.9,3.1c1.7,2.8,4.7,8.8,5,11c1.4,1.1,4.4,0.1,3.8-0.8
	C168.5,79.5,168.7,75,164,70.8z"/>
<path id="Path_4619" class="st42" d="M156.7,35.3c-0.5,4-3,8-3.9,9.3c-1.6,1.7-3.2-0.9-3.3-2.3c0.6-1.7,0.7-3.2,1.7-8
	c1.2-5.7,3.4-5.7,4.7-5.3S157.9,31.6,156.7,35.3z"/>
<path id="Path_4620" class="st42" d="M152.6,44.9c-1.9,1.2-4,2.1-6.2,2.5c-0.7-0.1-1.2-0.8-1.1-1.6c0,0,0-0.1,0-0.1
	c1.3-0.7,1.7-1.5,4.1-3.3C151.2,41.1,154,43.9,152.6,44.9z"/>
<path id="Path_4621" class="st23" d="M160.3,29.9c1.5,0.9,3.7,2.1,5,3.8c0.9,1.2-0.1,4.4-0.2,4.8c-1,8.3,0,8.6-0.7,10.7
	c-0.9,2.6-8.6,2.3-11.7-0.9c-1.4-0.8,1-2.9-0.3-9.1c-0.3-1.3-0.9-6.5,0.8-8.8c0.5-0.7,1.3-1.1,2.1-1.1
	C157.5,29.4,159,29.1,160.3,29.9z"/>
<path id="Path_4622" class="st43" d="M160.2,27.3c-0.1,1,0,2,0.4,2.9c-0.5,1.6-2.3,2.6-3.9,2c0,0,0,0,0,0c-0.5-0.2-0.8-0.7-0.6-1.3
	c0,0,0,0,0,0c0.1-0.4,0.7-0.8,0.8-1.3C157.1,29.1,159.6,27.7,160.2,27.3z"/>
<path id="Path_4623" class="st38" d="M154.4,23.4c0,0.6-0.2,1.1-0.3,1.7c-0.2,0.5,0.2,0.7,0.2,1.1c0,0.2-0.2,0.4-0.2,0.6
	c0,0.9,0.2,1.7,0.4,2.5c0.1,0.7,0.1,1.2,0.7,1.5c1.1,0.5,2.3-0.4,3.4-0.8c1.1-0.4,0.7-1.8,1-2.7C161.3,23,155.6,20.4,154.4,23.4z"/>
<path id="Path_4624" class="st44" d="M161.3,26.5L161.3,26.5z"/>
<path id="Path_4625" class="st45" d="M158.1,25.9c0.4,0.2,0.7,1.1,0.1,2.3c0,0.1,2.4-2.5,2-0.7c-0.1,0.5-0.1,1,0.1,1.5
	c0.4-0.2,0.8-1.5,1.1-2.5c0.4-1.3,0.2-2.7-0.6-3.8c-2.1,0.1-2.5,0.1-3.3,1.2C157.4,24.7,157.6,25.4,158.1,25.9z"/>
<path id="Path_4626" class="st38" d="M160.3,27.3c-0.2,0.6-0.5,1.1-0.8,1s-0.3-0.7-0.3-1.2c-0.1-0.5,0.2-0.9,0.7-1
	c0.1,0,0.2,0,0.2,0C160.4,26.1,160.5,26.7,160.3,27.3z"/>
<path id="Path_4627" class="st45" d="M160.8,22.8c-0.4-2.8-10.2,0.2-5.9,1.5c0.8-0.5,1.8,0,2.9-0.5
	C158.6,23.5,159.9,23.1,160.8,22.8z"/>
<path id="Path_4628" class="st42" d="M153.6,24.3c-0.8,0.5-1.6,1.1-2.4,1.8c1.5-0.4,2.6,0.6,3.4,1.1c0.9,0.5,2.4-1,3.4-1.4
	C155.2,25.7,154.1,25,153.6,24.3z"/>
<path id="Path_4629" class="st39" d="M153.5,24.6c1.3,1.3,5.5,1.4,8.1,0.6c0.6-3.5-1.8-4.4-4.2-4.4c-2-0.2-3.8,1.3-4,3.2
	C153.4,24.2,153.4,24.4,153.5,24.6L153.5,24.6z"/>
<path id="Path_4630" class="st0" d="M158.1,39.4v-0.6l0.1-0.8c0.1-0.5,0.1-0.9,0.2-1.4l0.6,0.1c0,0.2-0.1,0.4-0.1,0.6l-0.4,0
	l-0.1,0.5l0.3,0.1c0,0.2-0.1,0.4-0.1,0.6l-0.3-0.1c0,0.2,0,0.4-0.1,0.6l0.4,0.1c0,0.2,0,0.4-0.1,0.6L158.1,39.4z M158.1,37.1
	l0.1-0.1c0-0.1,0-0.3-0.1-0.4V37.1z M158.1,36.6v0.5l-0.1,0.2c0-0.2-0.1-0.2-0.1-0.3c-0.2,0.3-0.4,0.6-0.4,1c0,0.4,0,0.7,0.1,0.7
	c0.2,0,0.1-0.1,0.2-0.1c0,0.2,0,0.3,0.1,0.5c0,0.2-0.2,0.3-0.4,0.3c-0.2,0-0.2-0.2-0.3-0.5v-1c0.1-0.9,0.4-1.4,0.7-1.3
	C158,36.5,158.1,36.6,158.1,36.6L158.1,36.6z M158.1,38.8l-0.1,0.5h0.1V38.8L158.1,38.8z M157.2,36.5v-0.2l0,0V36.5z M157.2,36.3
	v0.2l-0.2,1.1c-0.1,0.5-0.1,0.9-0.2,1.3h-0.1v-1.1l0.1-0.3c0.1-0.5,0.2-0.9,0.2-1.3L157.2,36.3L157.2,36.3z M157.2,37.8V38
	c0,0.3,0,0.6,0,0.9V37.8L157.2,37.8z M156.7,36.7l0.2-0.5l-0.2-0.1V36.7z M156.7,36.1v0.6l-0.2,0.7c-0.1,0.4-0.3,0.9-0.4,1.3
	l-0.3-0.1l0.1-1.4l0.1-1.4l0.3,0.1c0,0.4-0.1,0.9-0.1,1.3c0,0.3,0,0.6-0.1,0.9l0,0c0.1-0.3,0.1-0.5,0.2-0.8c0.1-0.3,0.2-0.8,0.3-1.2
	L156.7,36.1L156.7,36.1z M156.7,37.9l-0.2,1l0.2,0.1V37.9z M155.4,38.3l0.1,0.1c0-0.4,0-0.8-0.1-1.1c0.2-0.1,0.3-0.3,0.3-0.9
	c0-0.6-0.1-0.8-0.3-0.9l-0.1-0.1V36l0,0c0.1,0.1,0.1,0.2,0.1,0.4c0,0.2-0.1,0.3-0.2,0.4L155.4,38.3z M155.4,35.5V36h-0.1
	c0,0.2-0.1,0.5-0.1,0.7l0.1,0.1h0.1v1.6l-0.1-0.1v-1l-0.2-0.1c-0.1,0.3-0.1,0.6-0.1,0.9l-0.1-0.1v-0.7l0.1-0.6
	c0.1-0.4,0.2-0.9,0.2-1.3L155.4,35.5L155.4,35.5z M154.8,35.8L154.8,35.8c0-0.2,0-0.4,0.1-0.5l-0.1-0.1L154.8,35.8z M153.9,35.2
	l0.1-0.1c0-0.1,0-0.2-0.1-0.3V35.2z M154.8,35.2v0.6l-0.4-0.2l-0.1,0.5l0.3,0.2c0,0.2,0,0.4-0.1,0.5l-0.3-0.2c0,0.2,0,0.4-0.1,0.5
	l0.4,0.2c0,0.2,0,0.4-0.1,0.5l-0.6-0.3V37l0.1-0.8c0.1-0.4,0.1-0.9,0.2-1.3L154.8,35.2L154.8,35.2z M154.8,37.3l-0.1,0.7l0.1,0.1
	V37.3z M153.3,37.2c0.2,0.2,0.4-0.2,0.5-0.7c0-0.3,0-0.5-0.1-0.8l-0.1-0.2c-0.1-0.1-0.1-0.3-0.1-0.4c0-0.1,0.1-0.2,0.1-0.2
	c0.1,0.1,0.1,0.2,0.1,0.4l0.1-0.2v-0.5c0-0.1-0.1-0.2-0.2-0.3c-0.2-0.1-0.4,0.1-0.5,0.6c0,0.3,0,0.6,0.1,0.8c0,0.1,0,0.1,0.1,0.2
	c0.1,0.1,0.1,0.2,0.1,0.4c0,0.2-0.1,0.2-0.1,0.2c-0.1-0.1-0.2-0.3-0.2-0.5l-0.2,0.3C153.1,36.9,153.2,37.1,153.3,37.2L153.3,37.2z
	 M153.9,37v0.6l-0.1-0.1L153.9,37z"/>
<path id="Path_4631" class="st42" d="M152.5,49.6c6,3.5,11.5,3.8,12,0.8c-0.1-0.3,0-0.9-0.1-1.2c-1.2,2.5-7.8,1.8-11.7-0.9
	C152.7,48.6,152.6,49.3,152.5,49.6z"/>
<path id="Path_4632" class="st38" d="M146.4,46.9c-0.6,0.5-0.1,0.8-0.7,1.5c-0.2,0.1-0.4-0.6-1.9,0.4c-0.3,0.1-1.5-1.4-1.3-1.7
	c0.5-0.4,1.9-0.6,3-1.2C145.9,45.8,146.4,46,146.4,46.9z"/>
<path id="Path_4633" class="st38" d="M143.9,48.7c-0.3,0.4-0.5,0.9-0.6,1.4c-0.1,0.4-0.6,0.2-0.5-0.2c0.1-0.5,0.3-1,0.5-1.5
	c0.1-0.1,0.3-0.2,0.4-0.1C143.8,48.5,143.9,48.6,143.9,48.7L143.9,48.7z"/>
<path id="Path_4634" class="st38" d="M143.4,48.4c-0.3,0.4-0.5,0.9-0.6,1.4c-0.1,0.4-0.6,0.2-0.5-0.2c0.1-0.5,0.3-1,0.5-1.4
	c0.1-0.1,0.2-0.2,0.4-0.1C143.3,48.2,143.4,48.3,143.4,48.4L143.4,48.4z"/>
<path id="Path_4635" class="st38" d="M143.1,47.9c-0.3,0.4-0.5,0.9-0.6,1.4c-0.1,0.4-0.5,0.2-0.5-0.2c0.1-0.5,0.2-1,0.5-1.5
	C142.7,47.3,143.2,47.5,143.1,47.9z"/>
<path id="Path_4636" class="st38" d="M143,47.4c-0.3,0.5-0.6,1-0.8,1.6c-0.1,0.4-0.6,0.2-0.5-0.2c0.1-0.6,0.3-1.1,0.6-1.6
	C142.6,46.8,143.2,47,143,47.4z"/>
<path id="Path_4637" class="st23" d="M163.3,73.7l-0.1-4.5l12.2-7l-0.7,5L163.3,73.7z"/>
<path id="Path_4638" class="st20" d="M158,66.3l5.1,2.9l0.1,4.5l-4.4-2.5L158,66.3z"/>
<path id="Path_4639" class="st42" d="M158.5,63.7l4.6,2.6l11.8-6.8l-4.6-2.6L158.5,63.7z"/>
<path id="Path_4640" class="st26" d="M163.2,69.2l-5.1-2.9l0.5-2.5l4.6,2.6V69.2z"/>
<path id="Path_4641" class="st26" d="M163.2,69.2l12.2-7l-0.4-2.6l-11.8,6.8V69.2z"/>
<path id="Path_4642" class="st34" d="M162.7,63.4l0.5-0.6v-1.1l5.9-2.9v1.6l0.4,0.2l0.3-2.8l-7.2,3.9V63.4z"/>
<path id="Path_4643" class="st46" d="M162.7,61.8l0.6,0.3l7.1-4.1l-0.5-0.3L162.7,61.8z"/>
<path id="Path_4644" class="st35" d="M162.7,64.5l-0.6-0.3l0.5-2.4l0.6,0.3L162.7,64.5z"/>
<path id="Path_4645" class="st34" d="M162.8,64.5l1.4-0.8l0-1.6l5.4-3.1v1.6l1.2-0.7l-0.4-1.9l-7.1,4.1L162.8,64.5z"/>
<path id="Path_4646" class="st47" d="M164.8,67.7l0.5,0.3l1.4-0.8l-0.5-0.3L164.8,67.7z"/>
<path id="Path_4647" class="st42" d="M165.1,70.2l-0.3-0.2v-2.3l0.5,0.3L165.1,70.2z"/>
<path id="Path_4648" class="st26" d="M165.1,70.2l1.4-0.8l0.3-2.2l-1.4,0.8L165.1,70.2z"/>
<path id="Path_4649" class="st47" d="M172.2,63.4l0.5,0.3l1.4-0.8l-0.5-0.3L172.2,63.4z"/>
<path id="Path_4650" class="st42" d="M172.5,65.9l-0.3-0.2v-2.3l0.5,0.3L172.5,65.9z"/>
<path id="Path_4651" class="st26" d="M172.5,65.9l1.4-0.8l0.3-2.2l-1.4,0.8L172.5,65.9z"/>
<path id="Path_4652" class="st38" d="M166.6,58.5c-0.4,0-0.7,0.2-0.9,0.6c-0.1,0.4-0.3,0.7-0.6,1c-0.3,0.4-0.3,0.3-0.5,0.7
	c0.6,0.4,1.3-0.5,1.5-0.9C167.4,59.7,167.1,58.5,166.6,58.5z"/>
<path id="Path_4653" class="st38" d="M166.4,57.4c-0.1,0.8-0.4,0.7-0.7,1.6c0,0.2,0.5,0.2,0.4,1.9c0.1,0.3,0.3,0.4,0.7,0.1
	c0.2-0.1,0.2,0.2,0.8-0.3c0.1-0.1,0.2,0,0.4-0.2c0.2-0.2,0.2-0.1,0.3-0.2c0-1-0.2-2-0.5-2.9C167.6,57.2,167.2,57,166.4,57.4z"/>
<path id="Path_4654" class="st38" d="M166.2,60.5c-0.2,0.4-0.5,0.8-0.9,1.1c-0.3,0.3,0.1,0.4,0.4,0.2c0.7-0.5,0.7-0.5,0.9-0.9
	C166.9,60.5,166.4,60.2,166.2,60.5z"/>
<path id="Path_4655" class="st42" d="M165.5,47.4c-0.1,0.5,3.8,0.8,3.7-0.4c0-2.6-0.5-5.2-1.3-7.6c-0.9-3.5-1.6-6-3-6.4
	c-1.5-0.5-3.1,0.3-3.5,1.8c0,0.2-0.1,0.3-0.1,0.5C161.3,39.4,164.9,44.1,165.5,47.4z"/>
<path id="Path_4656" class="st42" d="M169.1,45.8c0.8,2.5-0.1,9.6-1.2,12.2c-0.3,0.6-2.2,0.5-1.9-0.8c0.2-2.4-0.3-7.8-0.4-9.8
	C165.5,46.3,168.4,43.7,169.1,45.8z"/>
<path id="Path_4657" class="st48" d="M142.9,48.1l0,11.7l7.6,3.7l0-11.6L142.9,48.1z"/>
<g id="Group_263" transform="translate(188.599 124.492)">
	<path id="Path_4658" class="st47" d="M-45-73.8l0,0.5l6.1,2.8l0-0.6L-45-73.8z"/>
	<path id="Path_4659" class="st47" d="M-45-72.9l0,0.5l6.1,2.8l0-0.5L-45-72.9z"/>
	<path id="Path_4660" class="st47" d="M-45-72l0,0.6l6.1,2.8l0-0.6L-45-72z"/>
	<path id="Path_4661" class="st47" d="M-45-71.1l0,0.5l6.1,2.8l0-0.6L-45-71.1z"/>
	<path id="Path_4662" class="st47" d="M-45-70.2l0,0.5l6.1,2.8l0-0.5L-45-70.2z"/>
	<path id="Path_4663" class="st47" d="M-45-69.3l0,0.5l6.1,2.8l0-0.6L-45-69.3z"/>
	<path id="Path_4664" class="st47" d="M-45-68.4l0,0.5l6.1,2.8l0-0.5L-45-68.4z"/>
	<path id="Path_4665" class="st47" d="M-45-67.5l0,0.5l6.1,2.8l0-0.6L-45-67.5z"/>
	<path id="Path_4666" class="st47" d="M-45-66.6l0,0.5l6.1,2.8l0-0.6L-45-66.6z"/>
</g>
</svg>
